<svg width="24" height="24" viewBox="0 0 24 24" fill="none" xmlns="http://www.w3.org/2000/svg">
<rect width="24" height="24" rx="12" transform="matrix(1 0 0 -1 0 24)" fill="black"/>
<path d="M14.9896 13.2372C16.1308 13.2372 17.0596 14.1667 17.0596 15.309C17.0596 16.4513 16.1308 17.3809 14.9896 17.3809C13.8483 17.3809 12.9196 16.4513 12.9196 15.309C12.9196 14.1667 13.8483 13.2372 14.9896 13.2372Z" fill="white"/>
<path d="M11.0802 14.1582C11.8423 14.1582 12.4602 14.7766 12.4602 15.5394C12.4602 16.3023 11.8423 16.9207 11.0802 16.9207C10.318 16.9207 9.7002 16.3023 9.7002 15.5394C9.7002 14.7766 10.318 14.1582 11.0802 14.1582Z" fill="white"/>
<path d="M8.09019 14.1579C8.72531 14.1579 9.24019 14.6732 9.24019 15.3089C9.24019 15.9446 8.72531 16.46 8.09019 16.46C7.45506 16.46 6.94019 15.9446 6.94019 15.3089C6.94019 14.6732 7.45506 14.1579 8.09019 14.1579Z" fill="white"/>
<path d="M14.9899 12.7767C14.1343 12.7767 13.378 12.3485 12.9199 11.6957V11.8559C12.9199 12.8715 12.0946 13.6975 11.0799 13.6975C10.7658 13.6967 10.4571 13.6152 10.1835 13.4609C9.90993 13.3065 9.6805 13.0844 9.51724 12.8158C9.24998 13.3365 8.71362 13.6975 8.08986 13.6975C7.20206 13.6975 6.47986 12.9747 6.47986 12.0861V9.78403C6.47986 9.72298 6.50409 9.66443 6.54722 9.62126C6.59036 9.57808 6.64886 9.55383 6.70986 9.55383H9.23986V8.40281C9.23986 8.34175 9.26409 8.2832 9.30722 8.24003C9.35036 8.19686 9.40886 8.1726 9.46986 8.1726H12.4599V6.56117C12.4599 6.50012 12.4841 6.44157 12.5272 6.39839C12.5704 6.35522 12.6289 6.33097 12.6899 6.33097H17.2899C17.3509 6.33097 17.4094 6.35522 17.4525 6.39839C17.4956 6.44157 17.5199 6.50012 17.5199 6.56117V10.2444C17.5199 11.6409 16.385 12.7767 14.9899 12.7767Z" fill="white"/>
</svg>
