<svg width="24" height="24" viewBox="0 0 24 24" fill="none" xmlns="http://www.w3.org/2000/svg">
<rect width="24" height="24" rx="12" fill="#111111"/>
<path d="M10.8457 11.8667C10.8457 11.8667 11.9815 11.7803 11.9815 10.42C11.9815 9.0609 11.2111 8.39091 10.0337 8.39091L6 8.38452V15.8957H10.1275C10.1275 15.8957 12.1912 15.961 12.1912 13.6423C12.1912 13.6423 12.3428 11.8667 10.8457 11.8667ZM7.5009 9.5112H9.56464C9.56464 9.5112 10.2708 9.52284 10.2708 10.4392C10.2708 11.389 9.56464 11.389 9.56464 11.389H7.5009V9.5112ZM9.75225 14.769H7.5009V12.5157H9.75225C9.75225 12.5157 10.8779 12.5273 10.8779 13.6423C10.8779 14.7574 9.91435 14.769 9.75225 14.769Z" fill="white"/>
<path d="M15.3807 10.2625C12.5616 10.2625 12.5665 13.0791 12.5665 13.0791C12.5665 13.0791 12.3789 15.8958 15.3807 15.8958C15.3807 15.8958 18.0073 15.8958 18.0073 13.6425H16.5064C16.5064 13.6425 16.5064 14.7692 15.3807 14.7692C15.3807 14.7692 14.255 14.7692 14.255 13.2669C14.255 13.2669 17.2568 13.2669 18.0073 13.2669C18.0073 12.5158 18.0073 10.2625 15.3807 10.2625ZM14.255 12.5158C14.255 12.5158 14.2303 11.3891 15.3807 11.3891C16.5308 11.3891 16.5064 12.5158 16.5064 12.5158H14.255Z" fill="white"/>
<path d="M16.8817 9.13574H13.8799V9.88686H16.8817V9.13574Z" fill="white"/>
</svg>
