<svg width="68" height="16" viewBox="0 0 68 16" fill="none" xmlns="http://www.w3.org/2000/svg">
<path d="M14.6667 7.99992C14.6667 4.31992 11.68 1.33325 8.00001 1.33325C4.32001 1.33325 1.33334 4.31992 1.33334 7.99992C1.33334 11.2266 3.62668 13.9133 6.66668 14.5333V9.99992H5.33334V7.99992H6.66668V6.33325C6.66668 5.04659 7.71334 3.99992 9.00001 3.99992H10.6667V5.99992H9.33334C8.96668 5.99992 8.66668 6.29992 8.66668 6.66658V7.99992H10.6667V9.99992H8.66668V14.6333C12.0333 14.2999 14.6667 11.4599 14.6667 7.99992Z" fill="white"/>
<path d="M40.9733 4.00008C40.46 4.23341 39.9067 4.38675 39.3333 4.46008C39.92 4.10675 40.3733 3.54675 40.5867 2.87341C40.0333 3.20675 39.42 3.44008 38.7733 3.57341C38.2467 3.00008 37.5067 2.66675 36.6667 2.66675C35.1 2.66675 33.82 3.94675 33.82 5.52675C33.82 5.75341 33.8467 5.97341 33.8933 6.18008C31.52 6.06008 29.4067 4.92008 28 3.19341C27.7533 3.61341 27.6133 4.10675 27.6133 4.62675C27.6133 5.62008 28.1133 6.50008 28.8867 7.00008C28.4133 7.00008 27.9733 6.86675 27.5867 6.66675V6.68675C27.5867 8.07341 28.5733 9.23341 29.88 9.49341C29.4605 9.60822 29.0201 9.62419 28.5933 9.54008C28.7744 10.1084 29.129 10.6057 29.6074 10.962C30.0857 11.3184 30.6636 11.5159 31.26 11.5267C30.2491 12.327 28.996 12.7596 27.7067 12.7534C27.48 12.7534 27.2533 12.7401 27.0267 12.7134C28.2933 13.5267 29.8 14.0001 31.4133 14.0001C36.6667 14.0001 39.5533 9.64008 39.5533 5.86008C39.5533 5.73341 39.5533 5.61341 39.5467 5.48675C40.1067 5.08675 40.5867 4.58008 40.9733 4.00008Z" fill="white"/>
<path d="M58.0267 14.3599C58.6667 14.5533 59.3133 14.6666 60 14.6666C61.7681 14.6666 63.4638 13.9642 64.7141 12.714C65.9643 11.4637 66.6667 9.76803 66.6667 7.99992C66.6667 7.12444 66.4942 6.25753 66.1592 5.4487C65.8242 4.63986 65.3331 3.90493 64.7141 3.28587C64.095 2.66682 63.3601 2.17575 62.5512 1.84072C61.7424 1.50569 60.8755 1.33325 60 1.33325C59.1245 1.33325 58.2576 1.50569 57.4488 1.84072C56.6399 2.17575 55.905 2.66682 55.286 3.28587C54.0357 4.53612 53.3333 6.23181 53.3333 7.99992C53.3333 10.8333 55.1133 13.2666 57.6267 14.2266C57.5667 13.7066 57.5067 12.8466 57.6267 12.2533L58.3933 8.95992C58.3933 8.95992 58.2 8.57325 58.2 7.95992C58.2 7.03992 58.7733 6.35325 59.4267 6.35325C60 6.35325 60.2667 6.77325 60.2667 7.31325C60.2667 7.88659 59.8867 8.70658 59.6933 9.49325C59.58 10.1466 60.04 10.7199 60.7067 10.7199C61.8933 10.7199 62.8133 9.45325 62.8133 7.66658C62.8133 6.06659 61.6667 4.97325 60.02 4.97325C58.14 4.97325 57.0333 6.37325 57.0333 7.84659C57.0333 8.41992 57.22 8.99992 57.5267 9.37992C57.5867 9.41992 57.5867 9.47325 57.5667 9.57325L57.3733 10.2999C57.3733 10.4133 57.3 10.4533 57.1867 10.3733C56.3333 9.99992 55.84 8.78658 55.84 7.80658C55.84 5.69992 57.3333 3.78659 60.2133 3.78659C62.5067 3.78659 64.2933 5.43325 64.2933 7.61992C64.2933 9.91325 62.8733 11.7533 60.84 11.7533C60.1933 11.7533 59.56 11.4066 59.3333 10.9999L58.8867 12.5799C58.7333 13.1533 58.3133 13.9199 58.0267 14.3799V14.3599Z" fill="white"/>
</svg>
