<svg width="127" height="28" viewBox="0 0 127 28" fill="none" xmlns="http://www.w3.org/2000/svg">
<path d="M25.6667 13.9999C25.6667 7.55992 20.44 2.33325 14 2.33325C7.56001 2.33325 2.33334 7.55992 2.33334 13.9999C2.33334 19.6466 6.34668 24.3482 11.6667 25.4333V17.4999H9.33334V13.9999H11.6667V11.0833C11.6667 8.83158 13.4983 6.99992 15.75 6.99992H18.6667V10.4999H16.3333C15.6917 10.4999 15.1667 11.0249 15.1667 11.6666V13.9999H18.6667V17.4999H15.1667V25.6083C21.0583 25.0249 25.6667 20.0549 25.6667 13.9999Z" fill="#3B5998"/>
<path d="M43.7188 15.8438C43.7188 16.3281 43.5156 16.7188 43.125 17C42.7188 17.2969 42.2344 17.4375 41.6562 17.4375C41.2344 17.4375 40.875 17.375 40.5625 17.2344C40.25 17.1094 40 16.9219 39.7969 16.6875C39.5781 16.4688 39.4219 16.2031 39.2969 15.9062C39.1719 15.6094 39.0938 15.2969 39.0312 14.9531L36.9531 15.3594C37.0469 15.9375 37.2031 16.4688 37.4531 16.9375C37.6875 17.4062 38 17.8281 38.3906 18.1719C38.7812 18.5156 39.25 18.7812 39.7812 18.9688C40.3125 19.1562 40.9375 19.25 41.625 19.25C42.2656 19.25 42.8438 19.1719 43.3594 18.9844C43.8594 18.7969 44.2969 18.5469 44.6562 18.2188C45.0156 17.8906 45.2969 17.5156 45.5 17.0781C45.6875 16.6406 45.7969 16.1719 45.7969 15.6719C45.7969 14.7344 45.5 14 44.9062 13.4375C44.3125 12.8906 43.3125 12.5312 41.9375 12.3438C41 12.2344 40.3594 12.0312 39.9844 11.75C39.6094 11.4688 39.4375 11.125 39.4375 10.6875C39.4375 10.4688 39.4844 10.2656 39.5938 10.0781C39.6875 9.90625 39.8281 9.76562 40 9.65625C40.1562 9.54688 40.3594 9.45312 40.5938 9.39062C40.8125 9.32812 41.0625 9.29688 41.3125 9.29688C41.5781 9.29688 41.8438 9.34375 42.0938 9.42188C42.3438 9.51562 42.5625 9.64062 42.7812 9.79688C42.9844 9.96875 43.1562 10.1719 43.2969 10.4062C43.4375 10.6562 43.5469 10.9375 43.6094 11.25L45.5469 10.875C45.4688 10.4062 45.3281 9.95312 45.125 9.54688C44.9062 9.14062 44.6406 8.78125 44.2969 8.48438C43.9531 8.20312 43.5312 7.96875 43.0312 7.79688C42.5312 7.64062 41.9844 7.54688 41.3594 7.54688C40.8125 7.54688 40.2969 7.625 39.8125 7.76562C39.3281 7.90625 38.9062 8.10938 38.5469 8.39062C38.1719 8.67188 37.8906 9 37.6719 9.39062C37.4531 9.79688 37.3594 10.2344 37.3594 10.7344C37.3594 11.2031 37.4375 11.6406 37.6094 12.0156C37.7812 12.4062 38.0156 12.75 38.3281 13.0312C38.6406 13.3281 39.0156 13.5625 39.4688 13.7344C39.9062 13.9219 40.4062 14.0312 40.9531 14.0938C41.9531 14.2188 42.6562 14.4062 43.0781 14.6875C43.5 14.9688 43.7188 15.3438 43.7188 15.8438ZM47.5938 7.79688V19H49.6719V14.2812H54.2812V19H56.3594V7.79688H54.2812V12.4219H49.6719V7.79688H47.5938ZM62.0781 7.79688L57.4844 19H59.7812L60.6875 16.6406H65.6094L66.5312 19H68.8125L64.2188 7.79688H62.0781ZM61.3906 14.8281L63.1562 10.25L64.9062 14.8281H61.3906ZM73.9375 14.875L76.2188 19H78.5781L76.0625 14.5312C76.3594 14.3906 76.6406 14.2188 76.8906 14.0312C77.1406 13.8438 77.375 13.6094 77.5625 13.3438C77.75 13.0938 77.9062 12.7969 78.0156 12.4531C78.1094 12.1094 78.1719 11.7344 78.1719 11.2969C78.1719 10.7656 78.0625 10.2812 77.8594 9.84375C77.6562 9.40625 77.375 9.04688 77.0156 8.73438C76.6562 8.4375 76.2344 8.20312 75.75 8.04688C75.25 7.89062 74.7344 7.79688 74.1719 7.79688H69.9531V19H72.0312V14.875H73.9375ZM72.0312 13.0469V9.625H74.1875C74.7656 9.625 75.2344 9.78125 75.5938 10.0781C75.9375 10.3906 76.125 10.8125 76.125 11.3438C76.125 11.8906 75.9375 12.3125 75.5938 12.6094C75.2344 12.9062 74.7656 13.0469 74.1875 13.0469H72.0312ZM79.9844 7.79688V19H87.5625V17.1406H82.0625V14.2656H87.0156V12.4375H82.0625V9.65625H87.4375V7.79688H79.9844Z" fill="#3B5998"/>
<path d="M103.732 7.26L102.508 6.468C102.508 6.468 98.656 12.858 98.404 13.326C98.044 13.992 97.792 14.838 97.792 15.558C97.792 17.628 99.268 19.716 101.914 19.716C104.56 19.716 106.036 17.628 106.036 15.522C106.036 13.398 104.56 11.4 101.914 11.4C101.392 11.4 101.014 11.58 101.014 11.58L103.732 7.26ZM101.914 12.804C103.498 12.804 104.524 14.046 104.524 15.522C104.524 16.998 103.534 18.312 101.914 18.312C100.294 18.312 99.304 16.998 99.304 15.522C99.304 14.046 100.33 12.804 101.914 12.804ZM109.798 19.086L111.022 19.878C111.022 19.878 114.964 13.344 115.216 12.822C115.522 12.192 115.72 11.58 115.72 10.86C115.72 8.79 114.244 6.684 111.598 6.684C108.952 6.684 107.476 8.79 107.476 10.86C107.476 12.93 108.952 14.964 111.598 14.964C112.246 14.964 112.516 14.748 112.516 14.748L109.798 19.086ZM111.598 13.56C110.014 13.56 108.988 12.336 108.988 10.86C108.988 9.384 109.978 8.088 111.598 8.088C113.218 8.088 114.208 9.384 114.208 10.86C114.208 12.336 113.182 13.56 111.598 13.56ZM116.548 16.188H122.974V19.5H124.45V16.188H126.016V14.784H124.45V6.9H123.118L116.548 16.188ZM119.068 14.784L122.974 9.204V14.784H119.068Z" fill="#757575"/>
</svg>
