<svg width="336" height="55" viewBox="0 0 336 55" fill="none" xmlns="http://www.w3.org/2000/svg">
<path d="M25.6667 13.9999C25.6667 7.55992 20.44 2.33325 14 2.33325C7.56001 2.33325 2.33334 7.55992 2.33334 13.9999C2.33334 19.6466 6.34668 24.3482 11.6667 25.4333V17.4999H9.33334V13.9999H11.6667V11.0833C11.6667 8.83158 13.4983 6.99992 15.75 6.99992H18.6667V10.4999H16.3333C15.6917 10.4999 15.1667 11.0249 15.1667 11.6666V13.9999H18.6667V17.4999H15.1667V25.6083C21.0583 25.0249 25.6667 20.0549 25.6667 13.9999Z" fill="#121416"/>
<path d="M6.288 45.248L7.072 46.272L9.216 44.56V54H10.56V42.8H9.36L6.288 45.248ZM17.2364 42.608C14.3884 42.608 13.1564 45.408 13.1564 48.4C13.1564 51.392 14.3884 54.192 17.2364 54.192C20.0844 54.192 21.2844 51.392 21.2844 48.4C21.2844 45.408 20.0844 42.608 17.2364 42.608ZM17.2364 52.944C15.2524 52.944 14.5004 50.592 14.5004 48.4C14.5004 46.208 15.2524 43.856 17.2364 43.856C19.2204 43.856 19.9404 46.208 19.9404 48.4C19.9404 50.592 19.2204 52.944 17.2364 52.944Z" fill="#121416"/>
<path d="M103.203 7.00008C102.305 7.40841 101.337 7.67675 100.333 7.80508C101.36 7.18675 102.153 6.20675 102.527 5.02841C101.558 5.61175 100.485 6.02008 99.3534 6.25341C98.4317 5.25008 97.1367 4.66675 95.6667 4.66675C92.925 4.66675 90.685 6.90675 90.685 9.67175C90.685 10.0684 90.7317 10.4534 90.8134 10.8151C86.66 10.6051 82.9617 8.61008 80.5 5.58841C80.0684 6.32341 79.8234 7.18675 79.8234 8.09675C79.8234 9.83508 80.6984 11.3751 82.0517 12.2501C81.2234 12.2501 80.4534 12.0167 79.7767 11.6667V11.7017C79.7767 14.1284 81.5034 16.1584 83.79 16.6134C83.0559 16.8143 82.2851 16.8423 81.5384 16.6951C81.8552 17.6896 82.4758 18.5599 83.3129 19.1835C84.1499 19.8071 85.1614 20.1527 86.205 20.1717C84.4359 21.5723 82.243 22.3293 79.9867 22.3184C79.59 22.3184 79.1934 22.2951 78.7967 22.2484C81.0134 23.6717 83.65 24.5001 86.4734 24.5001C95.6667 24.5001 100.718 16.8701 100.718 10.2551C100.718 10.0334 100.718 9.82341 100.707 9.60175C101.687 8.90175 102.527 8.01508 103.203 7.00008Z" fill="#121416"/>
<path d="M82.984 43.12L81.896 42.416C81.896 42.416 78.472 48.096 78.248 48.512C77.928 49.104 77.704 49.856 77.704 50.496C77.704 52.336 79.016 54.192 81.368 54.192C83.72 54.192 85.032 52.336 85.032 50.464C85.032 48.576 83.72 46.8 81.368 46.8C80.904 46.8 80.568 46.96 80.568 46.96L82.984 43.12ZM81.368 48.048C82.776 48.048 83.688 49.152 83.688 50.464C83.688 51.776 82.808 52.944 81.368 52.944C79.928 52.944 79.048 51.776 79.048 50.464C79.048 49.152 79.96 48.048 81.368 48.048ZM88.3759 53.632L89.4639 54.336C89.4639 54.336 92.9679 48.528 93.1919 48.064C93.4639 47.504 93.6399 46.96 93.6399 46.32C93.6399 44.48 92.3279 42.608 89.9759 42.608C87.6239 42.608 86.3119 44.48 86.3119 46.32C86.3119 48.16 87.6239 49.968 89.9759 49.968C90.5519 49.968 90.7919 49.776 90.7919 49.776L88.3759 53.632ZM89.9759 48.72C88.5679 48.72 87.6559 47.632 87.6559 46.32C87.6559 45.008 88.5359 43.856 89.9759 43.856C91.4159 43.856 92.2959 45.008 92.2959 46.32C92.2959 47.632 91.3839 48.72 89.9759 48.72ZM100.344 54H102.216L98.4718 50.096L101.928 46.608H100.168L96.9998 49.888V41.904H95.6558V54H96.9998V50.416L100.344 54Z" fill="#121416"/>
<path d="M168 2.33325C171.17 2.33325 171.565 2.34492 172.809 2.40325C174.051 2.46159 174.897 2.65642 175.642 2.94575C176.412 3.24209 177.06 3.64342 177.709 4.29092C178.302 4.87413 178.761 5.57961 179.054 6.35825C179.342 7.10142 179.538 7.94842 179.597 9.19092C179.651 10.4346 179.667 10.8301 179.667 13.9999C179.667 17.1698 179.655 17.5653 179.597 18.8089C179.538 20.0514 179.342 20.8973 179.054 21.6416C178.762 22.4207 178.303 23.1263 177.709 23.7089C177.126 24.302 176.42 24.761 175.642 25.0541C174.898 25.3423 174.051 25.5383 172.809 25.5966C171.565 25.6514 171.17 25.6666 168 25.6666C164.83 25.6666 164.435 25.6549 163.191 25.5966C161.948 25.5383 161.103 25.3423 160.358 25.0541C159.579 24.7618 158.874 24.3027 158.291 23.7089C157.698 23.1258 157.239 22.4203 156.946 21.6416C156.656 20.8984 156.462 20.0514 156.403 18.8089C156.348 17.5653 156.333 17.1698 156.333 13.9999C156.333 10.8301 156.345 10.4346 156.403 9.19092C156.462 7.94725 156.656 7.10259 156.946 6.35825C157.238 5.57913 157.697 4.87346 158.291 4.29092C158.874 3.69736 159.579 3.23827 160.358 2.94575C161.103 2.65642 161.947 2.46159 163.191 2.40325C164.435 2.34842 164.83 2.33325 168 2.33325ZM168 8.16659C166.453 8.16659 164.969 8.78117 163.875 9.87513C162.781 10.9691 162.167 12.4528 162.167 13.9999C162.167 15.547 162.781 17.0307 163.875 18.1247C164.969 19.2187 166.453 19.8333 168 19.8333C169.547 19.8333 171.031 19.2187 172.125 18.1247C173.219 17.0307 173.833 15.547 173.833 13.9999C173.833 12.4528 173.219 10.9691 172.125 9.87513C171.031 8.78117 169.547 8.16659 168 8.16659ZM175.583 7.87492C175.583 7.48814 175.43 7.11721 175.156 6.84372C174.883 6.57023 174.512 6.41659 174.125 6.41659C173.738 6.41659 173.367 6.57023 173.094 6.84372C172.82 7.11721 172.667 7.48814 172.667 7.87492C172.667 8.26169 172.82 8.63263 173.094 8.90612C173.367 9.17961 173.738 9.33325 174.125 9.33325C174.512 9.33325 174.883 9.17961 175.156 8.90612C175.43 8.63263 175.583 8.26169 175.583 7.87492ZM168 10.4999C168.928 10.4999 169.818 10.8687 170.475 11.525C171.131 12.1814 171.5 13.0717 171.5 13.9999C171.5 14.9282 171.131 15.8184 170.475 16.4748C169.818 17.1312 168.928 17.4999 168 17.4999C167.072 17.4999 166.181 17.1312 165.525 16.4748C164.869 15.8184 164.5 14.9282 164.5 13.9999C164.5 13.0717 164.869 12.1814 165.525 11.525C166.181 10.8687 167.072 10.4999 168 10.4999Z" fill="#121416"/>
<path d="M158.532 51.056H164.244V54H165.556V51.056H166.948V49.808H165.556V42.8H164.372L158.532 51.056ZM160.772 49.808L164.244 44.848V49.808H160.772ZM175.916 50.432C175.916 47.872 174.188 46.656 172.38 46.656C171.132 46.656 170.316 47.12 170.316 47.12V44.048H175.676V42.8H169.036V49.168C169.036 49.168 170.524 47.92 172.076 47.92C173.452 47.92 174.572 48.752 174.572 50.432C174.572 52.08 173.42 52.944 172.108 52.944C170.268 52.944 169.644 51.152 169.644 51.152L168.476 51.776C168.476 51.776 169.356 54.192 172.108 54.192C174.044 54.192 175.916 52.944 175.916 50.432Z" fill="#121416"/>
<path d="M241.547 25.1299C242.667 25.4683 243.798 25.6666 245 25.6666C248.094 25.6666 251.062 24.4374 253.25 22.2495C255.437 20.0616 256.667 17.0941 256.667 13.9999C256.667 12.4678 256.365 10.9507 255.779 9.53528C255.192 8.11981 254.333 6.83369 253.25 5.75034C252.166 4.66699 250.88 3.80763 249.465 3.22132C248.049 2.63502 246.532 2.33325 245 2.33325C243.468 2.33325 241.951 2.63502 240.535 3.22132C239.12 3.80763 237.834 4.66699 236.75 5.75034C234.562 7.93826 233.333 10.9057 233.333 13.9999C233.333 18.9583 236.448 23.2166 240.847 24.8966C240.742 23.9866 240.637 22.4816 240.847 21.4433L242.188 15.6799C242.188 15.6799 241.85 15.0033 241.85 13.9299C241.85 12.3199 242.853 11.1183 243.997 11.1183C245 11.1183 245.467 11.8533 245.467 12.7983C245.467 13.8016 244.802 15.2366 244.463 16.6133C244.265 17.7566 245.07 18.7599 246.237 18.7599C248.313 18.7599 249.923 16.5433 249.923 13.4166C249.923 10.6166 247.917 8.70325 245.035 8.70325C241.745 8.70325 239.808 11.1533 239.808 13.7316C239.808 14.7349 240.135 15.7499 240.672 16.4149C240.777 16.4849 240.777 16.5783 240.742 16.7533L240.403 18.0249C240.403 18.2233 240.275 18.2933 240.077 18.1533C238.583 17.4999 237.72 15.3766 237.72 13.6616C237.72 9.97492 240.333 6.62659 245.373 6.62659C249.387 6.62659 252.513 9.50825 252.513 13.3349C252.513 17.3483 250.028 20.5683 246.47 20.5683C245.338 20.5683 244.23 19.9616 243.833 19.2499L243.052 22.0149C242.783 23.0183 242.048 24.3599 241.547 25.1649V25.1299Z" fill="#121416"/>
<path d="M237.984 43.12L236.896 42.416C236.896 42.416 233.472 48.096 233.248 48.512C232.928 49.104 232.704 49.856 232.704 50.496C232.704 52.336 234.016 54.192 236.368 54.192C238.72 54.192 240.032 52.336 240.032 50.464C240.032 48.576 238.72 46.8 236.368 46.8C235.904 46.8 235.568 46.96 235.568 46.96L237.984 43.12ZM236.368 48.048C237.776 48.048 238.688 49.152 238.688 50.464C238.688 51.776 237.808 52.944 236.368 52.944C234.928 52.944 234.048 51.776 234.048 50.464C234.048 49.152 234.96 48.048 236.368 48.048ZM243.376 53.632L244.464 54.336C244.464 54.336 247.968 48.528 248.192 48.064C248.464 47.504 248.64 46.96 248.64 46.32C248.64 44.48 247.328 42.608 244.976 42.608C242.624 42.608 241.312 44.48 241.312 46.32C241.312 48.16 242.624 49.968 244.976 49.968C245.552 49.968 245.792 49.776 245.792 49.776L243.376 53.632ZM244.976 48.72C243.568 48.72 242.656 47.632 242.656 46.32C242.656 45.008 243.536 43.856 244.976 43.856C246.416 43.856 247.296 45.008 247.296 46.32C247.296 47.632 246.384 48.72 244.976 48.72ZM255.344 54H257.216L253.472 50.096L256.928 46.608H255.168L252 49.888V41.904H250.656V54H252V50.416L255.344 54Z" fill="#121416"/>
<path d="M333.133 7.58108C333.667 9.66008 333.667 14.0001 333.667 14.0001C333.667 14.0001 333.667 18.3401 333.133 20.4191C332.837 21.5682 331.97 22.4724 330.872 22.7781C328.879 23.3334 322 23.3334 322 23.3334C322 23.3334 315.125 23.3334 313.127 22.7781C312.025 22.4677 311.159 21.5647 310.866 20.4191C310.333 18.3401 310.333 14.0001 310.333 14.0001C310.333 14.0001 310.333 9.66008 310.866 7.58108C311.163 6.43191 312.03 5.52775 313.127 5.22208C315.125 4.66675 322 4.66675 322 4.66675C322 4.66675 328.879 4.66675 330.872 5.22208C331.975 5.53241 332.841 6.43541 333.133 7.58108ZM319.667 18.0834L326.667 14.0001L319.667 9.91675V18.0834Z" fill="#121416"/>
<path d="M315.984 43.12L314.896 42.416C314.896 42.416 311.472 48.096 311.248 48.512C310.928 49.104 310.704 49.856 310.704 50.496C310.704 52.336 312.016 54.192 314.368 54.192C316.72 54.192 318.032 52.336 318.032 50.464C318.032 48.576 316.72 46.8 314.368 46.8C313.904 46.8 313.568 46.96 313.568 46.96L315.984 43.12ZM314.368 48.048C315.776 48.048 316.688 49.152 316.688 50.464C316.688 51.776 315.808 52.944 314.368 52.944C312.928 52.944 312.048 51.776 312.048 50.464C312.048 49.152 312.96 48.048 314.368 48.048ZM321.376 53.632L322.464 54.336C322.464 54.336 325.968 48.528 326.192 48.064C326.464 47.504 326.64 46.96 326.64 46.32C326.64 44.48 325.328 42.608 322.976 42.608C320.624 42.608 319.312 44.48 319.312 46.32C319.312 48.16 320.624 49.968 322.976 49.968C323.552 49.968 323.792 49.776 323.792 49.776L321.376 53.632ZM322.976 48.72C321.568 48.72 320.656 47.632 320.656 46.32C320.656 45.008 321.536 43.856 322.976 43.856C324.416 43.856 325.296 45.008 325.296 46.32C325.296 47.632 324.384 48.72 322.976 48.72ZM333.344 54H335.216L331.472 50.096L334.928 46.608H333.168L330 49.888V41.904H328.656V54H330V50.416L333.344 54Z" fill="#121416"/>
</svg>
