<svg width="341" height="21" viewBox="0 0 341 21" fill="none" xmlns="http://www.w3.org/2000/svg">
<path d="M4.59945 2C6.73279 2 8.41945 2.65333 9.65945 3.96C10.8995 5.25333 11.5195 6.93333 11.5195 9C11.5195 11.0667 10.8995 12.7533 9.65945 14.06C8.41945 15.3533 6.73279 16 4.59945 16H0.579453V2H4.59945ZM4.49945 14.4C6.15279 14.4 7.43279 13.8933 8.33945 12.88C9.25945 11.8533 9.71945 10.56 9.71945 9C9.71945 7.44 9.25945 6.15333 8.33945 5.14C7.43279 4.11333 6.15279 3.6 4.49945 3.6H2.25945V14.4H4.49945ZM17.5393 6.52C18.846 6.52 19.9193 6.97333 20.7593 7.88C21.6126 8.78667 22.0393 9.97333 22.0393 11.44C22.0393 11.6533 22.0326 11.8333 22.0193 11.98H14.5593C14.6126 12.7 14.9393 13.3333 15.5393 13.88C16.1526 14.4133 16.886 14.68 17.7393 14.68C18.2726 14.68 18.7726 14.5667 19.2393 14.34C19.706 14.1133 20.0393 13.8867 20.2393 13.66L20.5193 13.32L21.5793 14.42C21.5393 14.4733 21.4793 14.54 21.3993 14.62C21.3326 14.7 21.1726 14.8467 20.9193 15.06C20.6793 15.26 20.4193 15.44 20.1393 15.6C19.8726 15.76 19.5193 15.9067 19.0793 16.04C18.6393 16.1733 18.1926 16.24 17.7393 16.24C16.3526 16.24 15.1993 15.7733 14.2793 14.84C13.3726 13.9067 12.9193 12.7533 12.9193 11.38C12.9193 10.0067 13.346 8.85333 14.1993 7.92C15.066 6.98667 16.1793 6.52 17.5393 6.52ZM14.5993 10.58H20.3993C20.3593 9.98 20.086 9.41333 19.5793 8.88C19.0726 8.34667 18.3926 8.08 17.5393 8.08C16.646 8.08 15.9526 8.34667 15.4593 8.88C14.966 9.4 14.6793 9.96667 14.5993 10.58ZM23.3499 14.3L24.5099 13.22C24.5366 13.26 24.5766 13.3133 24.6299 13.38C24.6833 13.4467 24.7966 13.5667 24.9699 13.74C25.1433 13.9133 25.3299 14.0667 25.5299 14.2C25.7299 14.3333 25.9899 14.4533 26.3099 14.56C26.6433 14.6667 26.9766 14.72 27.3099 14.72C27.8299 14.72 28.2899 14.62 28.6899 14.42C29.1033 14.2067 29.3099 13.9267 29.3099 13.58C29.3099 13.1933 29.1433 12.8867 28.8099 12.66C28.4766 12.4333 27.9433 12.2467 27.2099 12.1C26.1299 11.8867 25.2966 11.5533 24.7099 11.1C24.1233 10.6333 23.8299 9.99333 23.8299 9.18C23.8299 8.47333 24.1499 7.85333 24.7899 7.32C25.4299 6.78667 26.2433 6.52 27.2299 6.52C27.8699 6.52 28.4766 6.64 29.0499 6.88C29.6233 7.10667 30.0299 7.33333 30.2699 7.56L30.6499 7.92L29.5499 9.06C29.4833 8.98 29.3833 8.88667 29.2499 8.78C29.1299 8.66 28.8633 8.50667 28.4499 8.32C28.0499 8.13333 27.6433 8.04 27.2299 8.04C26.6699 8.04 26.2366 8.16 25.9299 8.4C25.6233 8.62667 25.4699 8.9 25.4699 9.22C25.4699 9.56667 25.6433 9.84667 25.9899 10.06C26.3499 10.2733 26.9233 10.46 27.7099 10.62C28.7366 10.8467 29.5366 11.1733 30.1099 11.6C30.6833 12.0267 30.9699 12.6733 30.9699 13.54C30.9699 14.38 30.6033 15.04 29.8699 15.52C29.1366 16 28.2833 16.24 27.3099 16.24C26.8299 16.24 26.3633 16.1733 25.9099 16.04C25.4566 15.9067 25.0833 15.7467 24.7899 15.56C24.4966 15.3733 24.2366 15.1867 24.0099 15C23.7833 14.8 23.6166 14.6333 23.5099 14.5L23.3499 14.3ZM33.3515 16V6.76H35.0315V16H33.3515ZM33.3915 4.6C33.1648 4.37333 33.0515 4.10667 33.0515 3.8C33.0515 3.49333 33.1648 3.22667 33.3915 3C33.6182 2.77333 33.8848 2.66 34.1915 2.66C34.4982 2.66 34.7648 2.77333 34.9915 3C35.2182 3.22667 35.3315 3.49333 35.3315 3.8C35.3315 4.10667 35.2182 4.37333 34.9915 4.6C34.7648 4.82667 34.4982 4.94 34.1915 4.94C33.8848 4.94 33.6182 4.82667 33.3915 4.6ZM44.7152 16.12V14.84C44.5686 15.04 44.3886 15.2333 44.1752 15.42C43.9752 15.5933 43.6486 15.7733 43.1952 15.96C42.7419 16.1467 42.2552 16.24 41.7352 16.24C40.4819 16.24 39.4219 15.7733 38.5552 14.84C37.6886 13.8933 37.2552 12.74 37.2552 11.38C37.2552 10.02 37.6886 8.87333 38.5552 7.94C39.4219 6.99333 40.4819 6.52 41.7352 6.52C42.3886 6.52 42.9752 6.65333 43.4952 6.92C44.0152 7.18667 44.3752 7.45333 44.5752 7.72L44.8552 8.1V6.76H46.3952V16.04C46.3952 17.5733 45.9352 18.7533 45.0152 19.58C44.1086 20.42 42.9486 20.84 41.5352 20.84C40.7886 20.84 40.0752 20.6933 39.3952 20.4C38.7286 20.1067 38.2419 19.8133 37.9352 19.52L37.4952 19.08L38.5152 17.82C38.5419 17.86 38.5819 17.9133 38.6352 17.98C38.7019 18.0467 38.8352 18.16 39.0352 18.32C39.2352 18.4933 39.4419 18.64 39.6552 18.76C39.8686 18.8933 40.1419 19.0133 40.4752 19.12C40.8219 19.2267 41.1752 19.28 41.5352 19.28C42.5352 19.28 43.3152 19.0067 43.8752 18.46C44.4352 17.9267 44.7152 17.1467 44.7152 16.12ZM44.7152 13.12V9.64C44.6886 9.6 44.6486 9.54667 44.5952 9.48C44.5552 9.4 44.4486 9.27333 44.2752 9.1C44.1152 8.91333 43.9352 8.75333 43.7352 8.62C43.5486 8.48667 43.2952 8.36667 42.9752 8.26C42.6552 8.14 42.3286 8.08 41.9952 8.08C41.0752 8.08 40.3352 8.4 39.7752 9.04C39.2152 9.66667 38.9352 10.4467 38.9352 11.38C38.9352 12.3133 39.2152 13.1 39.7752 13.74C40.3352 14.3667 41.0752 14.68 41.9952 14.68C42.3419 14.68 42.6686 14.6267 42.9752 14.52C43.2952 14.4133 43.5552 14.2867 43.7552 14.14C43.9552 13.98 44.1286 13.8267 44.2752 13.68C44.4352 13.52 44.5486 13.3867 44.6152 13.28L44.7152 13.12ZM53.3499 6.52C54.3233 6.52 55.1433 6.84 55.8099 7.48C56.4899 8.10667 56.8299 8.96667 56.8299 10.06V16H55.1499V10.34C55.1499 9.59333 54.9433 9.03333 54.5299 8.66C54.1166 8.27333 53.5833 8.08 52.9299 8.08C52.6499 8.08 52.3766 8.13333 52.1099 8.24C51.8566 8.34667 51.6433 8.48 51.4699 8.64C51.2966 8.78667 51.1433 8.94 51.0099 9.1C50.8766 9.24667 50.7766 9.37333 50.7099 9.48L50.6299 9.64V16H48.9499V6.76H50.5099V8.06C50.5366 8.02 50.5699 7.96667 50.6099 7.9C50.6633 7.82 50.7699 7.69333 50.9299 7.52C51.1033 7.34667 51.2899 7.19333 51.4899 7.06C51.6899 6.92667 51.9566 6.80667 52.2899 6.7C52.6233 6.58 52.9766 6.52 53.3499 6.52ZM63.3791 6.52C64.6858 6.52 65.7591 6.97333 66.5991 7.88C67.4525 8.78667 67.8791 9.97333 67.8791 11.44C67.8791 11.6533 67.8725 11.8333 67.8591 11.98H60.3991C60.4525 12.7 60.7791 13.3333 61.3791 13.88C61.9925 14.4133 62.7258 14.68 63.5791 14.68C64.1125 14.68 64.6125 14.5667 65.0791 14.34C65.5458 14.1133 65.8791 13.8867 66.0791 13.66L66.3591 13.32L67.4191 14.42C67.3791 14.4733 67.3191 14.54 67.2391 14.62C67.1725 14.7 67.0125 14.8467 66.7591 15.06C66.5191 15.26 66.2591 15.44 65.9791 15.6C65.7125 15.76 65.3591 15.9067 64.9191 16.04C64.4791 16.1733 64.0325 16.24 63.5791 16.24C62.1925 16.24 61.0391 15.7733 60.1191 14.84C59.2125 13.9067 58.7591 12.7533 58.7591 11.38C58.7591 10.0067 59.1858 8.85333 60.0391 7.92C60.9058 6.98667 62.0191 6.52 63.3791 6.52ZM60.4391 10.58H66.2391C66.1991 9.98 65.9258 9.41333 65.4191 8.88C64.9125 8.34667 64.2325 8.08 63.3791 8.08C62.4858 8.08 61.7925 8.34667 61.2991 8.88C60.8058 9.4 60.5191 9.96667 60.4391 10.58ZM73.6298 6.52C74.0164 6.52 74.3764 6.56667 74.7098 6.66C75.0564 6.75333 75.3364 6.86667 75.5498 7C75.7764 7.13333 75.9698 7.27333 76.1298 7.42C76.3031 7.55333 76.4298 7.66667 76.5098 7.76L76.6098 7.9V0.879999H78.2898V16H76.7498V14.66C76.7231 14.7 76.6831 14.76 76.6298 14.84C76.5898 14.9067 76.4764 15.0333 76.2898 15.22C76.1031 15.3933 75.9031 15.5533 75.6898 15.7C75.4764 15.8333 75.1831 15.9533 74.8098 16.06C74.4364 16.18 74.0431 16.24 73.6298 16.24C72.3764 16.24 71.3164 15.7733 70.4498 14.84C69.5831 13.8933 69.1498 12.74 69.1498 11.38C69.1498 10.02 69.5831 8.87333 70.4498 7.94C71.3164 6.99333 72.3764 6.52 73.6298 6.52ZM76.6098 13.08V9.68C76.5831 9.64 76.5431 9.58667 76.4898 9.52C76.4498 9.44 76.3431 9.30667 76.1698 9.12C76.0098 8.93333 75.8298 8.77333 75.6298 8.64C75.4431 8.49333 75.1898 8.36667 74.8698 8.26C74.5631 8.14 74.2364 8.08 73.8898 8.08C72.9831 8.08 72.2431 8.4 71.6698 9.04C71.1098 9.66667 70.8298 10.4467 70.8298 11.38C70.8298 12.3133 71.1098 13.1 71.6698 13.74C72.2298 14.3667 72.9698 14.68 73.8898 14.68C74.2364 14.68 74.5631 14.6267 74.8698 14.52C75.1898 14.4133 75.4498 14.28 75.6498 14.12C75.8498 13.96 76.0231 13.8 76.1698 13.64C76.3298 13.48 76.4431 13.3467 76.5098 13.24L76.6098 13.08ZM96.441 8.32H98.001C98.001 9.24 97.9277 10.08 97.781 10.84C97.6343 11.5867 97.4877 12.1067 97.341 12.4L97.121 12.84L99.561 15.04L98.541 16.24L96.141 14.12C95.6343 14.7467 94.9543 15.26 94.101 15.66C93.261 16.0467 92.3743 16.24 91.441 16.24C90.121 16.24 89.0477 15.9133 88.221 15.26C87.3943 14.5933 86.981 13.82 86.981 12.94C86.981 12.1533 87.181 11.4667 87.581 10.88C87.981 10.2933 88.781 9.53333 89.981 8.6C89.1943 7.89333 88.6477 7.26667 88.341 6.72C88.0343 6.17333 87.881 5.58667 87.881 4.96C87.881 4.13333 88.201 3.39333 88.841 2.74C89.481 2.08667 90.3343 1.76 91.401 1.76C92.4677 1.76 93.321 2.09333 93.961 2.76C94.601 3.41333 94.921 4.14667 94.921 4.96C94.921 5.57333 94.7543 6.12667 94.421 6.62C94.101 7.11333 93.4343 7.78 92.421 8.62L95.921 11.78C96.2677 11.34 96.441 10.1867 96.441 8.32ZM91.441 14.68C92.1343 14.68 92.8077 14.54 93.461 14.26C94.1143 13.9667 94.6343 13.58 95.021 13.1L91.161 9.66L91.101 9.72C90.1677 10.4933 89.5277 11.08 89.181 11.48C88.8343 11.8667 88.661 12.2867 88.661 12.74C88.661 13.3933 88.9343 13.88 89.481 14.2C90.041 14.52 90.6943 14.68 91.441 14.68ZM89.561 4.96C89.561 5.26667 89.621 5.55333 89.741 5.82C89.861 6.08667 89.961 6.28 90.041 6.4C90.1343 6.50667 90.341 6.71333 90.661 7.02C90.9943 7.31333 91.2077 7.50667 91.301 7.6C92.2077 6.81333 92.7543 6.29333 92.941 6.04C93.141 5.77333 93.241 5.41333 93.241 4.96C93.241 4.50667 93.061 4.10667 92.701 3.76C92.3543 3.41333 91.921 3.24 91.401 3.24C90.8543 3.24 90.4077 3.42 90.061 3.78C89.7277 4.12667 89.561 4.52 89.561 4.96ZM110.83 2C112.963 2 114.65 2.65333 115.89 3.96C117.13 5.25333 117.75 6.93333 117.75 9C117.75 11.0667 117.13 12.7533 115.89 14.06C114.65 15.3533 112.963 16 110.83 16H106.81V2H110.83ZM110.73 14.4C112.383 14.4 113.663 13.8933 114.57 12.88C115.49 11.8533 115.95 10.56 115.95 9C115.95 7.44 115.49 6.15333 114.57 5.14C113.663 4.11333 112.383 3.6 110.73 3.6H108.49V14.4H110.73ZM123.77 6.52C125.076 6.52 126.15 6.97333 126.99 7.88C127.843 8.78667 128.27 9.97333 128.27 11.44C128.27 11.6533 128.263 11.8333 128.25 11.98H120.79C120.843 12.7 121.17 13.3333 121.77 13.88C122.383 14.4133 123.116 14.68 123.97 14.68C124.503 14.68 125.003 14.5667 125.47 14.34C125.936 14.1133 126.27 13.8867 126.47 13.66L126.75 13.32L127.81 14.42C127.77 14.4733 127.71 14.54 127.63 14.62C127.563 14.7 127.403 14.8467 127.15 15.06C126.91 15.26 126.65 15.44 126.37 15.6C126.103 15.76 125.75 15.9067 125.31 16.04C124.87 16.1733 124.423 16.24 123.97 16.24C122.583 16.24 121.43 15.7733 120.51 14.84C119.603 13.9067 119.15 12.7533 119.15 11.38C119.15 10.0067 119.576 8.85333 120.43 7.92C121.296 6.98667 122.41 6.52 123.77 6.52ZM120.83 10.58H126.63C126.59 9.98 126.316 9.41333 125.81 8.88C125.303 8.34667 124.623 8.08 123.77 8.08C122.876 8.08 122.183 8.34667 121.69 8.88C121.196 9.4 120.91 9.96667 120.83 10.58ZM128.747 6.76H130.587L133.427 13.02L136.267 6.76H137.987L133.367 16.4L128.747 6.76ZM143.086 6.52C144.393 6.52 145.466 6.97333 146.306 7.88C147.16 8.78667 147.586 9.97333 147.586 11.44C147.586 11.6533 147.58 11.8333 147.566 11.98H140.106C140.16 12.7 140.486 13.3333 141.086 13.88C141.7 14.4133 142.433 14.68 143.286 14.68C143.82 14.68 144.32 14.5667 144.786 14.34C145.253 14.1133 145.586 13.8867 145.786 13.66L146.066 13.32L147.126 14.42C147.086 14.4733 147.026 14.54 146.946 14.62C146.88 14.7 146.72 14.8467 146.466 15.06C146.226 15.26 145.966 15.44 145.686 15.6C145.42 15.76 145.066 15.9067 144.626 16.04C144.186 16.1733 143.74 16.24 143.286 16.24C141.9 16.24 140.746 15.7733 139.826 14.84C138.92 13.9067 138.466 12.7533 138.466 11.38C138.466 10.0067 138.893 8.85333 139.746 7.92C140.613 6.98667 141.726 6.52 143.086 6.52ZM140.146 10.58H145.946C145.906 9.98 145.633 9.41333 145.126 8.88C144.62 8.34667 143.94 8.08 143.086 8.08C142.193 8.08 141.5 8.34667 141.006 8.88C140.513 9.4 140.226 9.96667 140.146 10.58ZM149.857 16V0.879999H151.537V16H149.857ZM155.178 7.92C156.084 6.98667 157.218 6.52 158.578 6.52C159.938 6.52 161.071 6.98667 161.978 7.92C162.884 8.85333 163.338 10.0067 163.338 11.38C163.338 12.7533 162.884 13.9067 161.978 14.84C161.071 15.7733 159.938 16.24 158.578 16.24C157.218 16.24 156.084 15.7733 155.178 14.84C154.271 13.9067 153.818 12.7533 153.818 11.38C153.818 10.0067 154.271 8.85333 155.178 7.92ZM156.358 13.74C156.931 14.3667 157.671 14.68 158.578 14.68C159.484 14.68 160.224 14.3667 160.798 13.74C161.371 13.1 161.658 12.3133 161.658 11.38C161.658 10.4467 161.371 9.66667 160.798 9.04C160.224 8.4 159.484 8.08 158.578 8.08C157.671 8.08 156.931 8.4 156.358 9.04C155.784 9.66667 155.498 10.4467 155.498 11.38C155.498 12.3133 155.784 13.1 156.358 13.74ZM165.259 6.76H166.799V8.1C166.825 8.06 166.859 8.00667 166.899 7.94C166.952 7.86 167.072 7.73333 167.259 7.56C167.445 7.37333 167.645 7.21333 167.859 7.08C168.085 6.93333 168.379 6.80667 168.739 6.7C169.112 6.58 169.505 6.52 169.919 6.52C171.172 6.52 172.232 6.99333 173.099 7.94C173.965 8.87333 174.399 10.02 174.399 11.38C174.399 12.74 173.965 13.8933 173.099 14.84C172.232 15.7733 171.172 16.24 169.919 16.24C168.639 16.24 167.645 15.78 166.939 14.86V20.6H165.259V6.76ZM166.939 9.66V13.1C166.965 13.14 166.999 13.2 167.039 13.28C167.092 13.3467 167.199 13.4733 167.359 13.66C167.532 13.8333 167.712 13.9933 167.899 14.14C168.099 14.2733 168.352 14.4 168.659 14.52C168.979 14.6267 169.312 14.68 169.659 14.68C170.579 14.68 171.319 14.3667 171.879 13.74C172.439 13.1 172.719 12.3133 172.719 11.38C172.719 10.4467 172.439 9.66667 171.879 9.04C171.319 8.4 170.579 8.08 169.659 8.08C169.112 8.08 168.612 8.21333 168.159 8.48C167.705 8.74667 167.392 9.01333 167.219 9.28L166.939 9.66ZM180.293 6.52C181.6 6.52 182.673 6.97333 183.513 7.88C184.367 8.78667 184.793 9.97333 184.793 11.44C184.793 11.6533 184.787 11.8333 184.773 11.98H177.313C177.367 12.7 177.693 13.3333 178.293 13.88C178.907 14.4133 179.64 14.68 180.493 14.68C181.027 14.68 181.527 14.5667 181.993 14.34C182.46 14.1133 182.793 13.8867 182.993 13.66L183.273 13.32L184.333 14.42C184.293 14.4733 184.233 14.54 184.153 14.62C184.087 14.7 183.927 14.8467 183.673 15.06C183.433 15.26 183.173 15.44 182.893 15.6C182.627 15.76 182.273 15.9067 181.833 16.04C181.393 16.1733 180.947 16.24 180.493 16.24C179.107 16.24 177.953 15.7733 177.033 14.84C176.127 13.9067 175.673 12.7533 175.673 11.38C175.673 10.0067 176.1 8.85333 176.953 7.92C177.82 6.98667 178.933 6.52 180.293 6.52ZM177.353 10.58H183.153C183.113 9.98 182.84 9.41333 182.333 8.88C181.827 8.34667 181.147 8.08 180.293 8.08C179.4 8.08 178.707 8.34667 178.213 8.88C177.72 9.4 177.433 9.96667 177.353 10.58ZM190.544 6.52C190.93 6.52 191.29 6.56667 191.624 6.66C191.97 6.75333 192.25 6.86667 192.464 7C192.69 7.13333 192.884 7.27333 193.044 7.42C193.217 7.55333 193.344 7.66667 193.424 7.76L193.524 7.9V0.879999H195.204V16H193.664V14.66C193.637 14.7 193.597 14.76 193.544 14.84C193.504 14.9067 193.39 15.0333 193.204 15.22C193.017 15.3933 192.817 15.5533 192.604 15.7C192.39 15.8333 192.097 15.9533 191.724 16.06C191.35 16.18 190.957 16.24 190.544 16.24C189.29 16.24 188.23 15.7733 187.364 14.84C186.497 13.8933 186.064 12.74 186.064 11.38C186.064 10.02 186.497 8.87333 187.364 7.94C188.23 6.99333 189.29 6.52 190.544 6.52ZM193.524 13.08V9.68C193.497 9.64 193.457 9.58667 193.404 9.52C193.364 9.44 193.257 9.30667 193.084 9.12C192.924 8.93333 192.744 8.77333 192.544 8.64C192.357 8.49333 192.104 8.36667 191.784 8.26C191.477 8.14 191.15 8.08 190.804 8.08C189.897 8.08 189.157 8.4 188.584 9.04C188.024 9.66667 187.744 10.4467 187.744 11.38C187.744 12.3133 188.024 13.1 188.584 13.74C189.144 14.3667 189.884 14.68 190.804 14.68C191.15 14.68 191.477 14.6267 191.784 14.52C192.104 14.4133 192.364 14.28 192.564 14.12C192.764 13.96 192.937 13.8 193.084 13.64C193.244 13.48 193.357 13.3467 193.424 13.24L193.524 13.08ZM208.755 6.52C210.008 6.52 211.068 6.99333 211.935 7.94C212.802 8.87333 213.235 10.02 213.235 11.38C213.235 12.74 212.802 13.8933 211.935 14.84C211.068 15.7733 210.008 16.24 208.755 16.24C208.342 16.24 207.948 16.1867 207.575 16.08C207.215 15.9733 206.922 15.8467 206.695 15.7C206.468 15.54 206.268 15.38 206.095 15.22C205.935 15.06 205.815 14.9267 205.735 14.82L205.635 14.66V16H204.095V0.879999H205.775V7.9C205.802 7.86 205.835 7.81333 205.875 7.76C205.928 7.69333 206.048 7.58 206.235 7.42C206.422 7.26 206.615 7.12 206.815 7C207.028 6.88 207.308 6.77333 207.655 6.68C208.002 6.57333 208.368 6.52 208.755 6.52ZM205.775 9.68V13.08C205.802 13.12 205.835 13.18 205.875 13.26C205.928 13.3267 206.035 13.4533 206.195 13.64C206.368 13.8267 206.548 13.9933 206.735 14.14C206.935 14.2733 207.188 14.4 207.495 14.52C207.815 14.6267 208.148 14.68 208.495 14.68C209.415 14.68 210.155 14.3667 210.715 13.74C211.275 13.1 211.555 12.3133 211.555 11.38C211.555 10.4467 211.268 9.66667 210.695 9.04C210.135 8.4 209.402 8.08 208.495 8.08C208.148 8.08 207.815 8.13333 207.495 8.24C207.188 8.34667 206.935 8.48 206.735 8.64C206.535 8.8 206.355 8.96 206.195 9.12C206.048 9.28 205.942 9.41333 205.875 9.52L205.775 9.68ZM214.421 20.18L215.141 18.8C215.528 19.12 215.894 19.28 216.241 19.28C216.588 19.28 216.861 19.1667 217.061 18.94C217.274 18.7133 217.481 18.3533 217.681 17.86L218.401 16.04L214.081 6.76H215.981L219.221 14.06L221.981 6.76H223.801C220.708 14.5467 219.088 18.62 218.941 18.98C218.688 19.6067 218.328 20.0733 217.861 20.38C217.408 20.6867 216.914 20.84 216.381 20.84C216.048 20.84 215.714 20.7867 215.381 20.68C215.061 20.5733 214.821 20.4667 214.661 20.36L214.421 20.18ZM244.994 6.37109L242.377 1.99609H239.252L243.529 8.61719L238.92 16H241.928L244.994 10.9414L248.08 16H251.088L246.439 8.61719L250.736 1.99609H247.631L244.994 6.37109ZM252.826 1.99609V16H255.424V11.1172H258.002C258.705 11.1172 259.369 11.0195 259.994 10.8242C260.6 10.6289 261.127 10.3359 261.596 9.94531C262.045 9.55469 262.396 9.08594 262.65 8.51953C262.904 7.95312 263.041 7.30859 263.041 6.56641C263.041 5.82422 262.904 5.17969 262.65 4.61328C262.396 4.04688 262.045 3.57812 261.596 3.1875C261.127 2.79688 260.6 2.50391 259.994 2.30859C259.369 2.11328 258.705 1.99609 258.002 1.99609H252.826ZM255.424 8.83203V4.28125H257.943C258.725 4.28125 259.35 4.47656 259.799 4.86719C260.248 5.25781 260.482 5.82422 260.482 6.56641C260.482 7.32812 260.248 7.89453 259.799 8.26562C259.35 8.65625 258.725 8.83203 257.943 8.83203H255.424ZM270.189 16H274.799C275.775 16 276.693 15.8633 277.533 15.5508C278.373 15.2578 279.096 14.8086 279.721 14.2227C280.346 13.6367 280.834 12.9141 281.186 12.0352C281.537 11.1758 281.732 10.1602 281.732 9.00781C281.732 7.875 281.537 6.85938 281.186 5.98047C280.834 5.10156 280.346 4.35938 279.721 3.77344C279.096 3.1875 278.373 2.75781 277.533 2.44531C276.693 2.15234 275.775 1.99609 274.799 1.99609H270.189V16ZM274.916 13.6758H272.787V4.32031H274.916C275.521 4.32031 276.088 4.41797 276.596 4.61328C277.104 4.80859 277.533 5.08203 277.924 5.47266C278.295 5.86328 278.588 6.35156 278.803 6.9375C279.018 7.52344 279.135 8.22656 279.135 9.00781C279.135 9.80859 279.018 10.4922 278.803 11.0781C278.588 11.6641 278.295 12.1523 277.924 12.543C277.533 12.9336 277.084 13.2266 276.576 13.4023C276.068 13.5977 275.502 13.6758 274.916 13.6758ZM284.018 1.99609V16H293.49V13.6758H286.615V10.082H292.807V7.79688H286.615V4.32031H293.334V1.99609H284.018ZM303.393 12.0547C303.393 12.6602 303.139 13.1484 302.65 13.5C302.143 13.8711 301.537 14.0469 300.814 14.0469C300.287 14.0469 299.838 13.9688 299.447 13.793C299.057 13.6367 298.744 13.4023 298.49 13.1094C298.217 12.8359 298.021 12.5039 297.865 12.1328C297.709 11.7617 297.611 11.3711 297.533 10.9414L294.936 11.4492C295.053 12.1719 295.248 12.8359 295.561 13.4219C295.854 14.0078 296.244 14.5352 296.732 14.9648C297.221 15.3945 297.807 15.7266 298.471 15.9609C299.135 16.1953 299.916 16.3125 300.775 16.3125C301.576 16.3125 302.299 16.2148 302.943 15.9805C303.568 15.7461 304.115 15.4336 304.564 15.0234C305.014 14.6133 305.365 14.1445 305.619 13.5977C305.854 13.0508 305.99 12.4648 305.99 11.8398C305.99 10.668 305.619 9.75 304.877 9.04688C304.135 8.36328 302.885 7.91406 301.166 7.67969C299.994 7.54297 299.193 7.28906 298.725 6.9375C298.256 6.58594 298.041 6.15625 298.041 5.60938C298.041 5.33594 298.1 5.08203 298.236 4.84766C298.354 4.63281 298.529 4.45703 298.744 4.32031C298.939 4.18359 299.193 4.06641 299.486 3.98828C299.76 3.91016 300.072 3.87109 300.385 3.87109C300.717 3.87109 301.049 3.92969 301.361 4.02734C301.674 4.14453 301.947 4.30078 302.221 4.49609C302.475 4.71094 302.689 4.96484 302.865 5.25781C303.041 5.57031 303.178 5.92188 303.256 6.3125L305.678 5.84375C305.58 5.25781 305.404 4.69141 305.15 4.18359C304.877 3.67578 304.545 3.22656 304.115 2.85547C303.686 2.50391 303.158 2.21094 302.533 1.99609C301.908 1.80078 301.225 1.68359 300.443 1.68359C299.76 1.68359 299.115 1.78125 298.51 1.95703C297.904 2.13281 297.377 2.38672 296.928 2.73828C296.459 3.08984 296.107 3.5 295.834 3.98828C295.561 4.49609 295.443 5.04297 295.443 5.66797C295.443 6.25391 295.541 6.80078 295.756 7.26953C295.971 7.75781 296.264 8.1875 296.654 8.53906C297.045 8.91016 297.514 9.20312 298.08 9.41797C298.627 9.65234 299.252 9.78906 299.936 9.86719C301.186 10.0234 302.064 10.2578 302.592 10.6094C303.119 10.9609 303.393 11.4297 303.393 12.0547ZM308.236 1.99609V16H310.834V1.99609H308.236ZM319.467 8.63672V10.7656H323.9V12.1523C323.725 12.3867 323.529 12.6211 323.295 12.8359C323.061 13.0508 322.787 13.2461 322.494 13.4219C322.201 13.5977 321.869 13.7344 321.518 13.8516C321.146 13.9688 320.736 14.0078 320.307 14.0078C319.662 14.0078 319.057 13.9102 318.51 13.6758C317.963 13.4414 317.475 13.1094 317.064 12.6797C316.635 12.25 316.303 11.7227 316.068 11.0977C315.834 10.4922 315.717 9.78906 315.717 9.00781C315.717 8.20703 315.834 7.48438 316.088 6.85938C316.322 6.23438 316.654 5.72656 317.064 5.29688C317.475 4.86719 317.943 4.55469 318.471 4.33984C318.998 4.125 319.545 4.00781 320.092 4.00781C320.99 4.00781 321.771 4.26172 322.416 4.73047C323.061 5.19922 323.49 5.86328 323.705 6.72266L326.166 6.03906C326.029 5.41406 325.795 4.82812 325.463 4.28125C325.111 3.75391 324.701 3.30469 324.193 2.91406C323.686 2.52344 323.08 2.23047 322.396 2.01562C321.713 1.80078 320.951 1.68359 320.111 1.68359C319.174 1.68359 318.275 1.85938 317.436 2.19141C316.576 2.54297 315.834 3.03125 315.209 3.65625C314.564 4.30078 314.057 5.08203 313.686 5.98047C313.295 6.87891 313.119 7.89453 313.119 9.00781C313.119 10.1406 313.295 11.1367 313.646 12.0352C313.998 12.9336 314.506 13.7148 315.15 14.3398C315.775 14.9844 316.518 15.4727 317.377 15.8047C318.217 16.1562 319.135 16.3125 320.111 16.3125C320.814 16.3125 321.479 16.2539 322.084 16.0977C322.67 15.9609 323.217 15.7461 323.725 15.4727C324.232 15.1992 324.682 14.8867 325.092 14.4961C325.502 14.125 325.893 13.6953 326.264 13.207V8.63672H319.467ZM337.729 12.1523L331.537 1.99609H328.686V16H331.127V5.84375L337.299 16H340.17V1.99609H337.729V12.1523Z" fill="white"/>
</svg>
