<svg width="25" height="25" viewBox="0 0 25 25" fill="none" xmlns="http://www.w3.org/2000/svg">
<rect x="0.967773" y="0.0187988" width="24" height="24" rx="12" fill="#1B1F23"/>
<path fill-rule="evenodd" clip-rule="evenodd" d="M12.9556 5.52319C9.22871 5.52319 6.21008 8.52981 6.21008 12.2419C6.21008 15.2149 8.14099 17.726 10.8223 18.6163C11.1596 18.675 11.2861 18.4735 11.2861 18.2971C11.2861 18.1376 11.2777 17.6085 11.2777 17.0458C9.58285 17.3565 9.14439 16.6342 9.00948 16.2563C8.93359 16.0632 8.60475 15.4669 8.31806 15.3073C8.08197 15.1813 7.74469 14.8706 8.30963 14.8622C8.84084 14.8538 9.22028 15.3493 9.34675 15.5509C9.95385 16.5671 10.9235 16.2815 11.3114 16.1051C11.3704 15.6684 11.5475 15.3745 11.7414 15.2065C10.2405 15.0386 8.6722 14.4591 8.6722 11.8892C8.6722 11.1585 8.93359 10.5538 9.36362 10.0835C9.29616 9.91554 9.06007 9.22688 9.43107 8.30306C9.43107 8.30306 9.99601 8.12669 11.2861 8.99172C11.8257 8.84055 12.3991 8.76497 12.9725 8.76497C13.5458 8.76497 14.1192 8.84055 14.6589 8.99172C15.9489 8.11829 16.5139 8.30306 16.5139 8.30306C16.8849 9.22688 16.6488 9.91554 16.5813 10.0835C17.0114 10.5538 17.2727 11.1501 17.2727 11.8892C17.2727 14.4675 15.696 15.0386 14.1951 15.2065C14.4396 15.4165 14.6504 15.8196 14.6504 16.4495C14.6504 17.3481 14.642 18.0704 14.642 18.2971C14.642 18.4735 14.7685 18.6834 15.1057 18.6163C17.7702 17.726 19.7011 15.2065 19.7011 12.2419C19.7011 8.52981 16.6825 5.52319 12.9556 5.52319Z" fill="white"/>
</svg>
