<svg width="19" height="18" viewBox="0 0 19 18" fill="none" xmlns="http://www.w3.org/2000/svg">
<path fill-rule="evenodd" clip-rule="evenodd" d="M13.8359 0H4.83594C2.36116 0 0.335938 2.02432 0.335938 4.5V13.5C0.335938 15.9748 2.36116 18 4.83594 18H13.8359C16.3107 18 18.3359 15.9748 18.3359 13.5V4.5C18.3359 2.02432 16.3107 0 13.8359 0ZM9.33594 12.7499C7.26459 12.7499 5.58586 11.0704 5.58586 9C5.58586 6.92865 7.26459 5.24993 9.33594 5.24993C11.4064 5.24993 13.086 6.92865 13.086 9C13.086 11.0704 11.4064 12.7499 9.33594 12.7499ZM13.086 4.12492C13.086 4.74615 13.5891 5.24992 14.211 5.24992C14.8329 5.24992 15.336 4.74615 15.336 4.12492C15.336 3.5037 14.8329 2.99992 14.211 2.99992C13.5891 2.99992 13.086 3.5037 13.086 4.12492Z" fill="black"/>
</svg>
