<svg xmlns="http://www.w3.org/2000/svg" width="361" height="52" fill="none"><path fill="#fff" fill-rule="evenodd" d="M319.526 39.147h-5.141V10.5h5.141v28.647ZM225.953 16.77l-.095.053v5.578l8.463-4.706v12.94c0 3.347 1.158 5.69 2.151 6.682a5.347 5.347 0 0 0 2.011 1.258c.859.326 1.406.486 1.762.506.376.026.751.046 1.178.046 1.374 0 2.539-.046 3.468-.153l.159-.02v-4.699l-.191.014c-.566.033-1.184.046-1.845.046-2.393 0-3.558-1.178-3.558-3.594V17.702l8.464 4.706v-5.585l-11.022-6.183-10.945 6.13Zm57.651.393v1.963c-1.89-1.684-4.352-2.536-7.318-2.536-2.933 0-5.498 1.145-7.63 3.395a12.85 12.85 0 0 0-.859 1.011c-1.552 2.037-2.335 4.433-2.335 7.135 0 2.716.789 5.112 2.335 7.142.268.353.56.699.879 1.032 1.12 1.198 2.367 2.083 3.728 2.655a9.947 9.947 0 0 0 3.876.766c1.603 0 3.054-.26 4.359-.766a9.675 9.675 0 0 0 2.952-1.77v1.964h5.142V17.162H283.604Zm-1.884 15.635c-1.259 1.224-2.831 1.843-4.664 1.843-1.813 0-3.353-.619-4.569-1.843-1.241-1.205-1.871-2.763-1.871-4.64 0-1.896.611-3.42 1.871-4.665 1.222-1.205 2.756-1.817 4.563-1.817 1.826 0 3.391.612 4.664 1.817 1.273 1.238 1.896 2.762 1.896 4.665 0 1.91-.617 3.428-1.89 4.64Zm-25.735-12.56c1.66-2.223 4.009-3.348 6.987-3.348.566 0 1.075.013 1.559.04l.165.013v5.191l-1.368-.173c-2.291 0-4.111.932-5.377 2.763-1.324 1.903-1.966 3.807-1.966 5.817v8.606h-5.142V17.163h5.142v3.075Zm77.541-3.648c-3.131 0-5.746 1.125-7.77 3.341-2.024 2.217-3.048 4.986-3.048 8.22 0 3.408 1.056 6.217 3.15 8.353 2.119 2.164 4.721 3.215 7.954 3.215 2.781 0 5.473-.659 7.98-1.963l.191-.1-2.902-4.293-.14.066a11.018 11.018 0 0 1-5.084 1.205c-3.099 0-5.097-1.398-5.944-4.153h16.411v-1.877c0-3.74-1.075-6.71-3.194-8.826-2.125-2.116-4.684-3.188-7.604-3.188Zm-2.02 5.438c-1.731.632-2.978 1.977-3.544 3.794h11.104c-.42-1.311-1.133-2.33-2.119-3.042-1.521-1.138-3.608-1.424-5.441-.752Zm27.77-5.145c.566 0 1.075.02 1.559.053l.165.007v5.191l-1.368-.172c-2.291 0-4.111.931-5.377 2.762-1.324 1.903-1.966 3.807-1.966 5.817v8.6h-5.148V17.155h5.148v3.075c1.661-2.223 4.009-3.348 6.987-3.348Zm-66.895 5.331h11.791L292.438 33.87l-.057.053v5.225h18.466v-5.059h-11.842l11.842-11.834v-5.098h-18.466v5.058Z" clip-rule="evenodd"/><g fill="#fff" filter="url(#a)"><path d="m24.363 2.673.207.125c-.152.334-.242.585-.27.752a2.292 2.292 0 0 1-.103.418c-.027.07-.048.132-.062.188a.815.815 0 0 1-.041.104.83.83 0 0 0-.041.105c-.014.041-.035.09-.062.146-.083.139-.166.209-.248.209-.083 0-.194.07-.331.209a2.428 2.428 0 0 1-.207.25l-.207.209c-.096.167-.151.292-.165.376-.014.097-.11.18-.29.25a.628.628 0 0 1-.268.021c-.097-.014-.173.007-.228.063a3.88 3.88 0 0 1-.744.209c-.193.028-.4.056-.62.083-.317.14-.538.21-.662.21-.083 0-.193.013-.33.041-.111.028-.228.063-.352.105l-.434.146c-.152.487-.345.89-.58 1.211a4.52 4.52 0 0 0-.62 1.211 43.608 43.608 0 0 0-2.315 4.261c-.138.14-.255.306-.352.501l-.31.627-.248.46a.328.328 0 0 0-.083.125 11.514 11.514 0 0 0-.33.752c-.166.222-.283.41-.352.563-.069.153-.13.3-.186.439l-.248.418c-.083.139-.165.292-.248.46-.138.333-.269.646-.393.939-.11.292-.22.557-.33.794-.194.445-.366.967-.518 1.566-.055.167-.117.39-.186.668a2.243 2.243 0 0 1-.227.585c-.262.682-.53 1.371-.806 2.068-.262.696-.531 1.399-.807 2.11-.275.71-.544 1.426-.806 2.15-.262.71-.517 1.427-.765 2.151.441 0 .8-.076 1.075-.23.276-.152.648-.229 1.116-.229.304.418.331.835.083 1.253-.22.265-.344.473-.372.627a.866.866 0 0 1-.124.376c-.152.18-.255.32-.31.417a.981.981 0 0 1-.186.25c-.235.224-.662.377-1.282.46-.345.07-.6.147-.765.23a1.169 1.169 0 0 1-.33.125 2.6 2.6 0 0 1-.352.105c-.166.028-.317.056-.455.083a8.147 8.147 0 0 0-.372.084 1.7 1.7 0 0 1-.31-.02.37.37 0 0 0-.27.062 6.97 6.97 0 0 0-1.178.083c-.317.056-.627.126-.93.21-.262.069-.476.138-.641.208a1.806 1.806 0 0 1-.682.125.546.546 0 0 1-.248-.062.634.634 0 0 0-.29-.063 2.054 2.054 0 0 1-.248-.313.709.709 0 0 1-.124-.397c0-.14.02-.272.062-.397a.75.75 0 0 0 .02-.397c0-.32.118-.578.352-.772.248-.21.434-.411.558-.606.469-.07.834-.167 1.096-.293.152-.07.324-.125.517-.167.193-.055.4-.097.62-.125.193-.57.393-1.149.6-1.733.22-.585.448-1.177.682-1.776.483-1.197.937-2.367 1.365-3.508.096-.251.186-.467.268-.648.083-.18.173-.397.27-.647.275-.752.564-1.462.868-2.13.165-.182.289-.418.372-.71.041-.098.076-.216.103-.356.028-.139.062-.257.103-.355.083-.18.207-.404.373-.668l.413-.668c.097-.14.193-.272.29-.397.11-.14.213-.279.31-.418.11-.14.213-.271.31-.397l.29-.418c.096-.278.2-.55.31-.814l.33-.794.683-1.566c.055-.362.172-.759.351-1.19.18-.432.338-.801.476-1.107a7.06 7.06 0 0 0 .227-.46c.069-.167.13-.341.186-.522.055-.181.117-.348.186-.501.083-.167.172-.327.269-.48.027-.098.055-.189.083-.272.04-.098.082-.181.124-.25.04-.07.075-.147.103-.23.041-.098.076-.195.103-.293.124-.209.214-.397.27-.564a2.08 2.08 0 0 1 .103-.313l.123-.334a1.002 1.002 0 0 1-.31.104l-.31.063c-.096.028-.193.07-.29.125-.096.056-.22.098-.371.126-.441.07-.827.07-1.158 0-.372-.07-.607-.32-.703-.752-.014-.223.034-.341.145-.355.11-.014.2-.119.268-.314-.027-.64.056-1.12.249-1.44.193-.321.44-.509.744-.565a.902.902 0 0 1 .372-.083c.11 0 .22-.056.33-.167a4.27 4.27 0 0 1 .849-.146 48.3 48.3 0 0 0 .434-.042 5.1 5.1 0 0 0 .454-.063c.304-.056.593-.104.869-.146.275-.042.537-.063.785-.063l.827-.23c.249-.07.552-.09.91-.062.193 0 .372.02.538.063.165.041.344.062.537.062.097 0 .186.007.27.021.096 0 .192.007.289.02.206.029.406.015.6-.04a1.03 1.03 0 0 0 .475-.168.57.57 0 0 1 .475-.042c.276-.055.558-.111.848-.167.29-.055.586-.083.889-.083.303.014.455.007.455-.021 0-.042.041-.049.124-.021ZM18.987 28.111c.22-.14.4-.32.538-.543.069-.111.145-.223.227-.334.083-.112.172-.223.269-.334a5.793 5.793 0 0 1 1.158-1.044c.193-.293.434-.509.723-.648.29-.153.517-.383.683-.69.041-.055.09-.138.144-.25.056-.111.104-.195.145-.25.524-.738 1.089-1.351 1.696-1.838l.248-.21c.082-.069.158-.138.227-.208.11-.111.296-.25.558-.418.124-.07.248-.146.372-.23a3.78 3.78 0 0 0 .352-.313c.22-.223.475-.39.765-.501.179-.084.358-.146.537-.188.083-.028.166-.049.248-.063l.29-.083c.193-.056.365-.105.517-.146a.946.946 0 0 1 .517.02c.44.181.771.558.992 1.128.083.21.034.648-.145 1.316a30.934 30.934 0 0 1-.6 2.089c-.234.71-.399 1.26-.495 1.65-.056.208-.07.327-.042.355a.142.142 0 0 1 .042.104c-.056.14-.097.265-.125.376a8.245 8.245 0 0 0-.082.376 5.598 5.598 0 0 0-.124.898c-.028.376-.014.675.041.898.276-.014.434-.042.476-.084a.14.14 0 0 1 .103-.041.63.63 0 0 1 .269-.021.626.626 0 0 0 .269-.021c.565-.153 1.075-.46 1.53-.919.248-.111.482-.223.703-.334.234-.112.454-.223.661-.334.386-.279.696-.48.93-.606.235-.125.586-.3 1.055-.522.179-.209.42-.383.724-.522.275-.126.544-.3.806-.522.083-.084.151-.16.207-.23.082-.111.165-.132.248-.063.138.14.227.286.268.439.042.153.049.257.021.313-.207.209-.324.376-.351.501-.028.126-.062.21-.104.25-.138.14-.344.265-.62.377-.234.097-.379.188-.434.271a1.231 1.231 0 0 1-.372.376 1.232 1.232 0 0 0-.228.188.317.317 0 0 1-.227.146l-.269.063c-.165.14-.303.265-.413.376l-.373.376a3.165 3.165 0 0 0-.413.48c-.055.098-.207.23-.455.397l-.827.501a8.651 8.651 0 0 0-1.158.71l-1.157.836c-.249.153-.531.3-.848.438a4.98 4.98 0 0 0-.806.44.695.695 0 0 1-.228-.022c-.041-.028-.117-.007-.227.063a.48.48 0 0 0-.414-.021c-.151.07-.29.077-.413.02a8.313 8.313 0 0 0-.352-.27 1.156 1.156 0 0 0-.207-.147 1.069 1.069 0 0 1-.227-.209 1.008 1.008 0 0 1-.062-.46.595.595 0 0 0-.103-.417c0-.613.02-1.197.062-1.754.04-.557.13-1.142.268-1.755.028-.195.097-.529.207-1.002.11-.487.2-.954.269-1.4.069-.445.048-.703-.062-.772-.303.167-.613.418-.93.752-.152.167-.304.32-.455.46a9.11 9.11 0 0 1-.434.375l-.642.46c-.096.07-.2.146-.31.23-.11.069-.22.146-.33.23-.193.138-.359.278-.497.417a8.92 8.92 0 0 0-.454.501l-.29.292a4.774 4.774 0 0 0-.248.272 4.288 4.288 0 0 1-.579.522c-.138.14-.241.23-.31.272a1.564 1.564 0 0 0-.269.23l-.393.396c-.124.125-.282.23-.475.313a15.72 15.72 0 0 1-1.489 1.734 8.169 8.169 0 0 0-1.282 1.692c-.33.278-.682.522-1.054.73-.372.21-.82.23-1.344.063-.275-.167-.455-.306-.537-.418a1.258 1.258 0 0 0-.29-.25c.028-.306.055-.599.083-.877.027-.279.11-.571.248-.877l.248-.418c.138-.237.228-.515.269-.836a2.42 2.42 0 0 1 .269-.877c.165-.278.268-.508.31-.689a2.04 2.04 0 0 1 .186-.48c.069-.167.144-.3.227-.397.083-.098.159-.23.228-.397.069-.153.165-.313.29-.48a2.62 2.62 0 0 0 .288-.48c.166-.6.387-1.212.662-1.839.055-.194.11-.382.165-.563.056-.181.125-.355.207-.523.07-.153.138-.306.207-.46.069-.152.138-.298.207-.438.069-.153.138-.299.207-.438l.206-.46c.083-.167.159-.313.228-.438.069-.126.158-.258.268-.397l.124-.209c.042-.07.076-.14.104-.209.027-.07.062-.14.103-.209l.124-.209.124-.208c.042-.084.076-.174.104-.272.055-.18.158-.355.31-.522.096-.111.18-.216.248-.313.083-.112.152-.216.207-.314.096-.18.275-.306.537-.375.235.11.476.07.724-.126.262-.209.475-.195.64.042.387.25.649.445.787.585.165.153.275.306.33.46a.85.85 0 0 1 .042.772c-.11.264-.304.494-.58.69-.096.43-.289.876-.578 1.336-.138.209-.269.418-.393.626-.124.195-.241.39-.351.585l-.331.836c-.166.39-.338.78-.517 1.17-.18.389-.38.765-.6 1.127-.179.376-.317.62-.413.73a4.775 4.775 0 0 0-.228.335 7.562 7.562 0 0 0-.31.731Z"/><path d="m37.884 26.9.248.209c.07.111.049.264-.062.46a5.624 5.624 0 0 0-.145.27c-.027.084-.055.16-.082.23l.041.167a.796.796 0 0 0 .041.105c.028.083.014.174-.04.271.192.154.316.314.371.48.07.224.166.411.29.565.165.18.31.32.434.417.152.098.296.223.434.376.152-.083.262-.125.33-.125a.824.824 0 0 0 .332-.084c.234-.306.427-.696.579-1.17.027-.11.055-.236.082-.375.028-.14.042-.265.042-.376-.014-.362-.124-.738-.331-1.128a6.053 6.053 0 0 1-.455-1.128 1.276 1.276 0 0 1-.103-.752 1.914 1.914 0 0 0-.021-.751.606.606 0 0 0-.124-.335l-.083-.125-.082-.167a2.685 2.685 0 0 1-.063-.752.96.96 0 0 0-.186-.71c-.165.167-.427.487-.785.96l-1.075 1.38c-.345.459-.593.765-.745.918a4.256 4.256 0 0 1-.227.293c-.069.083-.145.16-.227.23a2.12 2.12 0 0 0-.249.25 4.642 4.642 0 0 0-.206.271c-.441.557-.772.968-.993 1.233-.206.264-.413.536-.62.814l-.992 1.337c-.152.223-.407.585-.765 1.086-.373.501-.724.988-1.055 1.462-.344.46-.551.766-.62.919-.165.278-.38.522-.641.73a1.446 1.446 0 0 1-.93.314 4.78 4.78 0 0 0-.083-.334 6.995 6.995 0 0 1-.145-.627c-.055-.209-.09-.32-.103-.334.083-.167.145-.334.186-.501.041-.153.158-.306.351-.46.055-.18.214-.48.476-.898.262-.431.565-.89.91-1.378.344-.501.668-.96.971-1.378.29-.418.483-.704.58-.857.178-.18.44-.494.785-.94l.992-1.336c.345-.46.593-.787.745-.982.124-.376.379-.842.765-1.4.4-.57.82-1.148 1.26-1.733.456-.598.828-1.113 1.117-1.545.138-.223.255-.418.352-.585.096-.167.2-.348.31-.543.11-.111.207-.237.29-.376.054-.209.027-.369-.083-.48a.575.575 0 0 1-.125-.439c.249-.473.49-.773.724-.898.248-.14.49-.369.724-.69.165-.11.296-.194.393-.25.137-.07.268-.167.392-.292.193-.195.476-.244.848-.146.386.083.613.202.682.355.014.083.014.195 0 .334l-.041.209-.041.209c-.028.125-.056.243-.083.355a407.014 407.014 0 0 1-.166.668c-.027.111-.055.23-.082.355-.055.306-.103.599-.145.877-.041.279.048.543.269.794-.028.14-.02.306.02.501.042.195.09.376.145.543.055.891.214 1.775.476 2.652.262.878.544 1.678.848 2.402 0 .14.02.279.061.418.042.14.09.279.145.418.083.89 0 1.775-.248 2.652l-.372 1.295c-.11.432-.22.856-.33 1.274a4.37 4.37 0 0 0-.414.96c-.097.321-.235.586-.414.794a4.756 4.756 0 0 0-.372.752c-.11.279-.33.502-.662.669a.953.953 0 0 1-.558 0 .82.82 0 0 0-.517 0 1.245 1.245 0 0 0-.372.104.825.825 0 0 1-.33.063c-.359.07-.655.035-.89-.105-.206-.111-.489-.202-.847-.271 0-.084-.042-.146-.124-.188a.785.785 0 0 1-.207-.147c-.097-.417-.207-.737-.33-.96a4.217 4.217 0 0 1-.249-.627 3.603 3.603 0 0 1-.124-.898c0-.306-.069-.605-.207-.898-.11-.25-.158-.404-.145-.46.014-.055.021-.139.021-.25 0-.362-.02-.759-.062-1.19-.041-.446.131-.801.517-1.066a.83.83 0 0 0 .31-.438c.055-.153.172-.313.352-.48.055-.056.144-.084.268-.084.097 0 .186.014.27.042ZM57.856 28.404c.469-.14.937-.265 1.406-.377.469-.11.951-.194 1.447-.25a6.15 6.15 0 0 0 1.365-.25l.579-.189c.096-.027.186-.055.269-.083.096-.042.186-.077.268-.105.193-.055.38-.104.559-.146.179-.042.337-.076.475-.104.22.167.324.257.31.271-.014.014.007.049.062.105l-.33.584a.912.912 0 0 1-.393.168 1.379 1.379 0 0 0-.435.125c-.137.083-.22.14-.248.167a.501.501 0 0 1-.165.125c-.124.028-.214.021-.269-.02a.91.91 0 0 0-.186-.105 6.323 6.323 0 0 1-2.274.919c-.882.167-1.696.376-2.44.626-.276.14-.551.286-.827.439-.276.153-.565.327-.868.522a5.26 5.26 0 0 1-.93 1.295c-.4.418-.807.78-1.22 1.086-.11.084-.2.146-.27.188a1.348 1.348 0 0 0-.144.084.323.323 0 0 1-.083.062c-.096.042-.2.077-.31.105-.11.041-.22.076-.33.104l-.331.084c-.11.027-.214.055-.31.083-.166.167-.304.25-.414.25a.759.759 0 0 1-.496-.083 1.338 1.338 0 0 0-.538-.167c-.137-.25-.22-.425-.248-.522a.252.252 0 0 0-.165-.146c-.07-.279-.228-.543-.476-.794a2.85 2.85 0 0 1-.558-.793 2.722 2.722 0 0 1-.145-.355 1.133 1.133 0 0 1-.062-.355c.028-.307.152-.571.373-.794.22-.223.44-.404.661-.543.166.25.31.348.434.292.124-.055.228-.111.31-.167.097-.042.214-.076.352-.104l.269-.063c.413-.097.854-.181 1.323-.25.303-.028.537-.021.703.02.207.042.427.035.661-.02.138-.251.31-.488.517-.71.207-.223.407-.432.6-.627.138-.334.317-.696.537-1.086.22-.39.441-.766.662-1.128l.372-.752c.055-.056.103-.111.145-.167.041-.056.09-.14.145-.25.055-.223.075-.44.062-.648a16.09 16.09 0 0 0-.062-.69 3.87 3.87 0 0 1-.786-.626.567.567 0 0 1-.476 0 .567.567 0 0 0-.475 0 .524.524 0 0 0-.248.126c-.042.027-.09.055-.145.083a6.172 6.172 0 0 1-.951.46c-.29.097-.517.264-.682.5-.152.154-.29.3-.414.44a7.361 7.361 0 0 0-.33.354l-.31.355-.31.355a13.53 13.53 0 0 0-.352.293.643.643 0 0 0-.166.188c-.041.07-.103.146-.186.23l-.248.25-.248.209c-.165.14-.317.292-.455.46a.879.879 0 0 1-.227.23.88.88 0 0 0-.228.229c-.165.181-.31.39-.434.627-.11.208-.241.431-.393.668l-.827 1.336c-.151.432-.317.864-.496 1.295a19.53 19.53 0 0 1-.537 1.233c-.193.403-.38.821-.559 1.253-.165.431-.324.87-.475 1.316-.055.292-.097.452-.124.48a.142.142 0 0 0-.042.104 3.163 3.163 0 0 0-.062.314l-.082.292a2.354 2.354 0 0 1-.186.522 3.792 3.792 0 0 1-.248.69c-.11.236-.221.466-.331.688-.18.446-.345.87-.496 1.274-.166.46-.331.899-.497 1.316-.069.153-.13.307-.186.46l-.165.46-.31.918c-.07.153-.117.32-.145.501l-.041.251a1.662 1.662 0 0 1-.062.25c-.083.293-.186.613-.31.961a3.2 3.2 0 0 0-.228.961c-.4.39-.675.724-.827 1.003-.303.306-.62.577-.951.814-.33.237-.703.439-1.116.606-.262 0-.6-.028-1.014-.084-.427-.041-.64-.222-.64-.543-.028-.25-.021-.57.02-.96.042-.39.131-.724.27-1.003.11-.306.227-.599.35-.877.125-.279.242-.515.352-.71.165-.724.372-1.337.62-1.838.07-.153.138-.3.207-.439l.207-.417c.151-.293.275-.578.372-.857.069-.195.11-.404.124-.626a.933.933 0 0 1 .248-.585c.193-.474.434-.919.724-1.337.29-.417.586-.835.889-1.253.151-.237.275-.466.372-.69.11-.236.234-.465.372-.688.248-.432.455-.878.62-1.337.166-.473.4-.905.703-1.295.07-.153.138-.3.207-.438l.207-.418.413-.815c.041-.097.09-.243.145-.438.055-.195.103-.341.145-.439l.248-.376.207-.417c.248-.557.503-1.107.765-1.65a16.78 16.78 0 0 1 .889-1.608c.013-.293.09-.571.227-.836.069-.125.13-.258.186-.397.055-.139.11-.285.165-.438.083-.237.145-.474.187-.71.055-.293.103-.53.144-.71.083-.251.18-.446.29-.585a2.88 2.88 0 0 0 .372-.627l.083-.125c.027-.042.055-.09.082-.146.028-.056.055-.105.083-.147l.083-.125c.082-.167.144-.313.186-.439.027-.097.103-.23.227-.396.33-.39.544-.606.641-.648a1.45 1.45 0 0 0 .207-.104c.069-.056.145-.112.227-.167.551-.028.896.104 1.034.397.138.292.262.591.372.898l-.165.668a12.7 12.7 0 0 0-.166.794l.331-.293c.124-.111.255-.223.393-.334.276-.237.517-.46.724-.668.234-.14.461-.286.682-.439.234-.153.462-.306.682-.46.441-.32.937-.591 1.489-.814.138-.056.282-.111.434-.167.152-.056.296-.084.434-.084.124 0 .241.035.352.105a.975.975 0 0 0 .392.146c.152.153.31.286.476.397.151.097.31.244.475.438.11.14.193.307.248.502a446.01 446.01 0 0 0 .166.585l.083.292c.04.097.09.195.144.292.097.181.159.362.186.543 0 .084-.013.223-.041.418a3.434 3.434 0 0 0-.041.418c0 .111.007.195.02.25.014.056.021.168.021.335-.014.264-.124.612-.33 1.044l-.497 1.044-.165.334-.124.293-.29.626c-.138.306-.262.585-.372.836l-.33.752Z"/><path d="m72.04 12.322.413.125c.055.07.082.153.082.25 0 .07.042.14.124.21-.055.25-.103.508-.144.772a5.008 5.008 0 0 0-.062.773c0 .098.034.195.103.293a.462.462 0 0 1 .103.25c-.137.32-.24.515-.31.585-.069.07-.103.14-.103.209a.627.627 0 0 0-.31.25c-.07.112-.186.167-.352.167a.601.601 0 0 1-.186.189.32.32 0 0 0-.144.23c-.455.194-.952.18-1.489-.043-.152-.264-.345-.445-.579-.543-.358-.529-.372-1.155-.041-1.88.055-.139.117-.285.186-.438.069-.153.13-.257.186-.313a4.463 4.463 0 0 1 .827-.501c.069-.042.13-.084.186-.126.096-.07.241-.139.434-.209a.716.716 0 0 1 .228-.041.61.61 0 0 0 .31-.084c.055-.014.103-.028.144-.042.055-.013.104-.027.145-.041.11-.028.193-.042.248-.042Zm-6.203 18.504.206.084c.249-.112.552-.154.91-.126.372.028.662-.027.868-.167.138-.111.235-.195.29-.25.083-.084.18-.112.29-.084a8.79 8.79 0 0 0 1.116-.501c.317-.167.648-.293.992-.376.22-.084.414-.209.58-.376.564-.181 1.04-.439 1.426-.773.4-.334.834-.689 1.302-1.065.386-.223.71-.418.972-.585.262-.167.544-.376.848-.626.069-.153.144-.258.227-.314.069-.041.145-.132.227-.271.497 0 .772.195.828.585a2.058 2.058 0 0 1-.559.752 4.146 4.146 0 0 0-.64.668c-.221.14-.4.265-.538.376a1.98 1.98 0 0 0-.414.501c-.014 0-.096.063-.248.188-.138.125-.22.188-.248.188-.22.265-.386.425-.496.48-.11.056-.303.202-.579.439-.18.306-.427.557-.744.752a10.12 10.12 0 0 1-1.882 1.441 12.94 12.94 0 0 0-.971.606c-.304.195-.593.39-.869.584-.138.084-.234.16-.29.23-.054.07-.15.16-.289.272-.138.111-.351.223-.64.334-.29.111-.545.209-.766.292-.179.112-.33.195-.454.25-.62.029-1.09-.069-1.406-.292a39.97 39.97 0 0 1-.827-.459c-.193-.111-.359-.292-.496-.543-.318-.153-.504-.41-.559-.773a6.815 6.815 0 0 0-.103-.564l-.124-.543c-.028-.139-.055-.299-.083-.48a1.937 1.937 0 0 1 0-.564c.069-.32.11-.647.124-.982.014-.306.083-.605.207-.898.124-.278.2-.584.227-.919a2.81 2.81 0 0 1 .228-.919c.179-.278.255-.431.227-.459-.014-.014-.007-.056.02-.125l.187-.25c.041-.057.103-.154.186-.293l.248-.627a3.56 3.56 0 0 1 .372-.585c.124-.167.235-.403.331-.71.069-.195.145-.348.227-.46.056-.069.104-.139.145-.208l.166-.25a4.09 4.09 0 0 0 .206-.523c.028-.097.055-.188.083-.271l.124-.293c.083-.223.186-.445.31-.668.124-.223.255-.446.393-.668.11-.223.207-.39.29-.502.082-.111.248-.18.496-.209a.68.68 0 0 1 .372.021c.151.042.29.035.413-.02.359-.168.607-.251.745-.251s.234-.042.29-.125c.289.014.51.111.66.292.152.167.318.334.497.501-.166.808-.352 1.427-.558 1.859-.207.432-.434.884-.683 1.357a9.163 9.163 0 0 0-.413.752l-.372.752a6.33 6.33 0 0 1-.434.815c-.18.278-.31.55-.393.814l-.186.397a8.01 8.01 0 0 0-.186.397 2.473 2.473 0 0 1-.104.292.741.741 0 0 1-.124.23 1.29 1.29 0 0 0-.144.23l-.125.209-.248.5a3.159 3.159 0 0 0-.206.544c-.138.306-.221.508-.249.606a.821.821 0 0 0-.04.104l-.042.084a2.397 2.397 0 0 1-.248.751c-.11.195-.07.335.124.418Z"/><path d="M85.974 29.949c.11-.153.193-.258.248-.313.07-.07.152-.133.248-.188.345-.738.793-1.323 1.344-1.755a41.677 41.677 0 0 0 1.799-1.462.476.476 0 0 0 .351-.146c.097-.097.214-.174.352-.23.165-.153.324-.278.475-.375.124-.084.228-.195.31-.335.317-.153.614-.362.89-.626.289-.265.572-.501.847-.71.22-.056.455-.028.703.083.11.223.152.46.124.71-.027.251-.165.39-.413.418a4.854 4.854 0 0 1-.269.25.755.755 0 0 1-.352.168c-.275.056-.454.167-.537.334-.014.265-.048.425-.103.48a.41.41 0 0 0-.104.146c-.303.516-.64.961-1.013 1.337a7.122 7.122 0 0 0-1.054 1.337c-.152.097-.276.25-.372.46-.497.278-.862.494-1.096.647a3.069 3.069 0 0 0-.641.564c-.166.097-.248.18-.248.25 0 .056-.028.112-.083.167-.276.237-.434.411-.475.522a.635.635 0 0 1-.187.272 4.412 4.412 0 0 0-.372.292c-.096.084-.179.16-.248.23a1.449 1.449 0 0 1-.537.355c-.235.195-.58.425-1.034.69a5.73 5.73 0 0 1-1.406.626c-.482.153-.882.16-1.2.02l-.289-.229a3.807 3.807 0 0 0-.29-.188 2.867 2.867 0 0 0-.599-.564 2.382 2.382 0 0 1-.558-.605 2.24 2.24 0 0 1-.393-.899 3.418 3.418 0 0 0-.31-.94c-.069-.723-.014-1.322.166-1.796.151-.473.317-.912.496-1.315.179-.418.379-.8.6-1.149.427-.668.723-1.462.888-2.38-.303-.307-.475-.593-.517-.857-.013-.14-.04-.3-.082-.48l-.145-.627a9.238 9.238 0 0 0-1.985 1.796 19.594 19.594 0 0 0-1.612 2.214l-.496.919a4.426 4.426 0 0 1-.497.752c-.138.139-.207.23-.207.271 0 .042-.027.09-.082.146-.11.14-.2.258-.269.355a1.893 1.893 0 0 0-.145.23l-.082.167-.083.126a2.44 2.44 0 0 1-.207.25c-.055.056-.124.14-.207.25-.386.558-.737 1.08-1.054 1.567l-.972 1.483a4.389 4.389 0 0 0-.372.71c-.096.25-.234.473-.413.668-.276.028-.435-.014-.476-.125-.041-.111-.034-.209.02-.292-.33-.223-.516-.655-.557-1.295-.042-.64.02-1.156.186-1.546-.083-.25-.11-.39-.083-.417.028-.028.041-.07.041-.126.359-.5.724-1.002 1.096-1.503.372-.502.765-.975 1.178-1.42l.207-.293c.07-.097.131-.195.186-.292.138-.21.283-.39.434-.543.235-.404.517-.822.848-1.254.331-.417.6-.849.806-1.294.152-.154.256-.307.31-.46a.926.926 0 0 1 .352-.417c.097-.168.18-.328.248-.48.083-.168.152-.328.207-.481.083-.265.234-.53.455-.794a1.42 1.42 0 0 1 .207-.46 3.6 3.6 0 0 1 .33-.375c.014-.126.09-.244.228-.355.138-.112.241-.23.31-.355.069-.195.138-.32.207-.376a.361.361 0 0 0 .124-.293c.138-.139.275-.285.413-.438.138-.154.262-.341.372-.564.386-.223.655-.334.807-.334.151 0 .269-.07.351-.21h.352c.137 0 .282-.006.434-.02.317-.028.482.076.496.313a.527.527 0 0 1 0 .209l-.041.125-.042.126c.014.25.014.383 0 .396-.027.028-.041.05-.041.063a.731.731 0 0 0-.02.293c.013.07.02.194.02.375a7.397 7.397 0 0 1-.083.523c-.027.139.028.299.166.48a.782.782 0 0 0 .248.23c.096.055.193.146.29.271a.57.57 0 0 1 .144.25.57.57 0 0 0 .145.251c.055.07.138.14.248.21.11.069.193.166.248.292.152.111.2.18.145.209-.042.027.02.083.186.167.317.403.551.835.703 1.294.179.349.33.627.454.836a.592.592 0 0 1 0 .668c-.082.084-.179.25-.289.502a2.436 2.436 0 0 0-.33.417 1.239 1.239 0 0 0-.125.313.54.54 0 0 1-.124.272 9.91 9.91 0 0 1-.765 1.086 5.9 5.9 0 0 0-.682 1.044c.014.794.165 1.379.455 1.755.33.39.537.584.62.584.18.028.372-.027.579-.167l.537-.334c.056-.028.104-.056.145-.083.055-.028.104-.056.145-.084a.915.915 0 0 1 .29-.125c.289-.098.427-.133.413-.105-.014.042 0 .063.041.063Z"/><path d="m102.225 21.637-.042.334c.028.097 0 .264-.082.501a1.076 1.076 0 0 0-.248.543l-.145.293a1.355 1.355 0 0 0-.104.334 1.577 1.577 0 0 0-.062.584c.014.112.014.223 0 .335 0 .097-.006.195-.02.292a10.61 10.61 0 0 0-.124.898c-.028.292-.055.592-.083.898 0 .306-.028.654-.083 1.044-.055.39-.11.738-.165 1.045.124.222.193.431.207.626.013.209.11.39.289.543.551-.083.992-.216 1.323-.397.331-.18.648-.438.951-.772a2.44 2.44 0 0 0 .517-.293c.11-.097.269-.209.476-.334l.331-.334c.33-.181.516-.293.558-.334a.67.67 0 0 1 .103-.084l.166-.083c.468-.307.827-.627 1.075-.961.206-.167.379-.341.516-.522.111-.153.324-.3.641-.439.18-.223.379-.41.6-.564a2.88 2.88 0 0 0 .6-.564c.151 0 .261.028.33.084l.124.084.166.083c.083.223.096.453.041.69a1.822 1.822 0 0 1-.289.647c-.138.18-.207.292-.207.334 0 .028-.014.056-.041.083a3.235 3.235 0 0 1-.311.314 1.666 1.666 0 0 0-.31.313c-.137.25-.248.376-.33.376a.279.279 0 0 0-.207.083 9.81 9.81 0 0 0-.517.335c-.11.097-.269.208-.476.334-.289.153-.468.264-.537.334a.497.497 0 0 1-.166.125 7.51 7.51 0 0 1-.971.94c-.29.223-.6.536-.931.94l-.33.25a1.142 1.142 0 0 0-.29.335 3.266 3.266 0 0 0-.599.5c-.152.168-.324.363-.517.586a3.197 3.197 0 0 0-.538.355 3.423 3.423 0 0 1-.62.397 5.78 5.78 0 0 1-.352.188.868.868 0 0 1-.392.104 1.679 1.679 0 0 1-.91-.084 8.576 8.576 0 0 0-.786-.25 1.483 1.483 0 0 0-.413-.418 2.86 2.86 0 0 1-.538-1.086c-.11-.418-.22-.863-.33-1.337a3.014 3.014 0 0 0-.62.543c-.166.21-.414.39-.745.543-.276.265-.558.53-.848.794-.29.25-.592.494-.91.731-.303.237-.613.487-.93.752-.317.25-.634.508-.951.773-.22.223-.372.306-.455.25-.248.307-.689.404-1.323.293a4.637 4.637 0 0 0-.744-.293 5.1 5.1 0 0 1-.662-.25 2.084 2.084 0 0 1-1.178-.627 4.74 4.74 0 0 1-.807-1.17 5.972 5.972 0 0 1-.186-.626 3.14 3.14 0 0 0-.062-.313c-.027-.112-.055-.23-.082-.355a1.481 1.481 0 0 0-.125-.564.602.602 0 0 1 0-.439c-.055-.07-.069-.16-.04-.271.027-.14.04-.244.04-.314-.027-.39.007-.807.104-1.253a5.93 5.93 0 0 1 .393-1.211 2.19 2.19 0 0 1 .33-.418.534.534 0 0 0 .124-.25.42.42 0 0 1 .125-.21c.069-.083.151-.166.248-.25.138-.111.234-.195.29-.25.068-.098.137-.188.206-.272.083-.097.172-.181.269-.25.096-.07.186-.147.268-.23l.248-.25c.097-.098.173-.196.228-.293a.627.627 0 0 1 .31-.251 1.92 1.92 0 0 1 .372-.48c.138-.126.29-.258.455-.397a6.416 6.416 0 0 1 1.737-1.462c.703-.404 1.323-.85 1.86-1.337.194-.083.359-.18.497-.292l.413-.334c.345-.307.717-.404 1.117-.293l1.075.293c.275.25.544.5.806.752.262.25.49.529.682.835.097-.014.2-.02.31-.02a1.49 1.49 0 0 1 .352 0 2.2 2.2 0 0 0 .786-.064.55.55 0 0 0 .248-.062.479.479 0 0 1 .206-.063c.414.14.621.348.621.627Zm-5.459.626c-.744.362-1.42.787-2.026 1.274a20.613 20.613 0 0 0-1.736 1.567c-.07.07-.145.139-.228.209a2.53 2.53 0 0 0-.206.187 2.515 2.515 0 0 0-.393.397c-.11.14-.214.307-.31.502l-.27.543-.082.167a.673.673 0 0 1-.083.104.695.695 0 0 0-.082.104l-.083.126a.885.885 0 0 0-.062.417c.014.098.02.251.02.46v.418c0 .083.014.222.042.417.083.307.124.613.124.92 0 .222.02.494.062.814.041.32.145.536.31.647.18.112.352.14.517.084.193-.07.352-.112.475-.126a34.775 34.775 0 0 0 2.73-2.36 15.3 15.3 0 0 0 2.274-2.777 15.338 15.338 0 0 1-.02-2.11 5.68 5.68 0 0 0-.187-1.9.531.531 0 0 0-.393-.063c-.11.014-.24.007-.393-.02Z"/><path d="M119.344 10.192c.606.097 1.13.16 1.571.188.455.027.951-.007 1.488-.105l1.634-.23c.441-.055.971-.118 1.592-.188.165-.014.337-.014.517 0 .096.014.186.028.268.042h.248c.359 0 .71-.014 1.055-.042.344-.027.668-.055.972-.083.055-.014.103-.028.144-.042.055-.014.104-.028.145-.042a.379.379 0 0 1 .248 0h.372c.124 0 .248-.007.372-.02a.835.835 0 0 1 .662.271c.083.278.11.432.083.46a.326.326 0 0 0-.083.125c-.027.362-.076.543-.145.543-.069 0-.103.028-.103.083a25.6 25.6 0 0 0-.558.147.575.575 0 0 0-.352.271 3.804 3.804 0 0 1-1.302.063c-.4-.07-.807-.007-1.22.188a8.126 8.126 0 0 0-.6.313c-.193.125-.448.132-.765.02-.275 0-.592.015-.951.043-.358.027-.703.055-1.033.083-.469.042-1 .09-1.592.146-.579.042-1.027.07-1.344.084l-1.303.063c-.565.027-1.068.041-1.509.041a1.264 1.264 0 0 0-.434.71 1.165 1.165 0 0 1-.434.669c-.248.557-.428.912-.538 1.065a1.87 1.87 0 0 0-.289.647 14.759 14.759 0 0 0-1.055 1.567c-.289.5-.655 1.01-1.096 1.524a2.214 2.214 0 0 1-.31.815c-.138.223-.241.536-.31.94-.289.39-.51.849-.661 1.378-.069.25-.152.508-.249.773-.082.264-.179.536-.289.814a8.75 8.75 0 0 1-.186.648c-.069.209-.145.424-.227.647a4.62 4.62 0 0 1-.393.773c-.069.111-.145.237-.228.376a9.135 9.135 0 0 0-.206.397.31.31 0 0 0-.083.23c0 .07-.014.146-.042.23l-.124.292c-.041.083-.082.16-.124.23a4.506 4.506 0 0 0-.206.438 1.84 1.84 0 0 0-.104.438 1.848 1.848 0 0 1-.103.44l-.041.124a.803.803 0 0 1-.042.105.822.822 0 0 0-.041.104l-.042.126c-.082.39-.082.654 0 .793.083.14.152.279.207.418.028.083.055.16.083.23l.083.209c.069.125.11.257.124.396l.206.084c.069.028.131.055.186.083a.866.866 0 0 0 .393.084c.179.028.359-.049.538-.23.193-.195.358-.3.496-.313.165-.056.352-.084.558-.084a.902.902 0 0 0 .476-.125c.083-.07.158-.14.227-.209.069-.07.131-.139.186-.209.083-.125.235-.222.455-.292.441-.111.676-.202.703-.272.014-.055.11-.16.29-.313.096-.07.186-.139.268-.209.097-.07.18-.132.248-.188.111-.097.297-.23.559-.396.275-.14.434-.223.475-.251.042-.028.159-.125.352-.293.137-.07.262-.139.372-.208a3.54 3.54 0 0 0 .331-.25c.151-.14.372-.293.661-.46.331-.14.51-.223.538-.251a.306.306 0 0 0 .082-.146c.014-.056.166-.174.455-.355.097-.21.221-.39.372-.543l.228-.23c.083-.098.172-.202.269-.313a3.39 3.39 0 0 1 .517-.502 5.5 5.5 0 0 0 .475-.417c.055-.042.124-.105.207-.188a.484.484 0 0 1 .289-.146c.083-.07.152-.133.207-.188.069-.056.131-.112.186-.167l.186-.188c.083-.07.179-.154.29-.251l.206-.209c.097-.097.166-.153.207-.167.124 0 .214.042.269.125a.331.331 0 0 0 .269.126 9.62 9.62 0 0 1-.042.438v.25a.627.627 0 0 1-.082.314c-.166.265-.352.404-.559.418-.206.028-.365.18-.475.46-.083-.056-.186-.07-.31-.043a.542.542 0 0 0-.269.126.591.591 0 0 1 .083.292c0 .056.013.153.041.293-.51.515-.841.919-.992 1.211-.345.362-.524.564-.538.606l-.041.062-.331.334c-.386.307-.675.6-.868.878-.18.264-.469.515-.869.752-.303.222-.51.39-.62.5l-.207.21c-.082.07-.179.153-.289.25-.069.07-.173.188-.31.355a2.073 2.073 0 0 1-.352.355 4.88 4.88 0 0 1-.558.376c-.152.084-.31.223-.476.418-.399.181-.696.404-.889.668-.179.237-.448.474-.806.71-.248.167-.586.376-1.013.627a7.08 7.08 0 0 1-1.096.543 13.78 13.78 0 0 1-.124.042.777.777 0 0 0-.103.042.811.811 0 0 1-.104.041l-.124.042a27.17 27.17 0 0 1-.641-.418 1.637 1.637 0 0 1-.516-.584 8.446 8.446 0 0 0-.6-.418 2.13 2.13 0 0 1-.434-.334 20.814 20.814 0 0 0-.434-.71 10.919 10.919 0 0 0-.497-.71 5.387 5.387 0 0 1-.806-1.588 1.093 1.093 0 0 1-.103-.355l-.062-.397a9.749 9.749 0 0 0-.166-.585c-.055-.139-.069-.348-.041-.626 0-.195.028-.376.083-.543l.082-.292.083-.335c.055-.18.117-.355.186-.522.069-.18.138-.355.207-.522.165-.376.282-.738.351-1.086a24.01 24.01 0 0 1 .538-1.67c.041-.098.076-.23.103-.398.014-.125.09-.215.228-.271.11-.557.289-1.093.537-1.608.248-.515.496-1.01.745-1.483.151-.292.296-.585.434-.877l.413-.92c.138-.306.276-.605.414-.897.138-.306.282-.606.434-.898.014-.307.124-.585.331-.836.013-.278.124-.577.331-.898.206-.32.344-.62.413-.898a2.239 2.239 0 0 0-1.013-.02c-.372.069-.696.132-.972.187-.496.014-1.02.014-1.571 0l-.29-.041a1.512 1.512 0 0 0-.268-.063 2.277 2.277 0 0 0-.517-.063c-.248.014-.434-.007-.558-.063a.438.438 0 0 0-.393-.02 9.554 9.554 0 0 0-1.179-.877c-.413-.251-.682-.571-.806-.961 0-.084.041-.153.124-.21.11-.083.179-.138.207-.166.234-.07.482-.09.744-.063.262.014.482-.035.662-.146.399.056.806.028 1.219-.084a3.308 3.308 0 0 1 1.179-.125c.055 0 .138.014.248.042.11.028.193.042.248.042.138.014.255.014.352 0l.165-.042c.055-.014.117-.028.186-.042.166-.028.345-.028.538 0 .193.028.386.028.579 0 .399-.028.833.007 1.302.104.51.098.958.077 1.344-.062l.207-.585c.082-.209.172-.41.268-.606.193-.403.338-.8.435-1.19.11-.167.22-.355.33-.564a3.14 3.14 0 0 0 .249-.606l.392-.668.166-.25a2.89 2.89 0 0 1 .186-.251c.193-.404.338-.787.434-1.149l.165-.585c.069-.208.145-.424.228-.647.179-.195.358-.41.537-.648.18-.236.359-.494.538-.772.207.028.365-.028.475-.167.125-.14.311-.126.559.041 0 .084.034.16.103.23.069.07.076.174.021.313.275.279.455.53.537.752.055.223.035.48-.062.773a.984.984 0 0 0 .062.815.655.655 0 0 1 .042.396c-.028.154-.014.272.041.355.069.154.145.293.227.418.097.14.145.32.145.543 0 .084-.021.188-.062.313a6.385 6.385 0 0 1-.145.397c-.096.418-.179.71-.248.877a6.65 6.65 0 0 0-.082.272 5.34 5.34 0 0 0-.083.271c-.193.237-.29.383-.29.439a.65.65 0 0 1-.041.188 3.084 3.084 0 0 0-.124.292c-.041.098-.09.202-.145.314a5.73 5.73 0 0 0-.144.313 2.268 2.268 0 0 1-.124.25Z"/><path d="m128.441 12.322.413.125c.055.07.083.153.083.25 0 .07.041.14.124.21-.055.25-.104.508-.145.772a5.046 5.046 0 0 0-.062.773c0 .098.034.195.103.293.069.097.104.18.104.25-.138.32-.241.515-.31.585-.069.07-.104.14-.104.209a.627.627 0 0 0-.31.25c-.069.112-.186.167-.351.167a.598.598 0 0 1-.186.189.32.32 0 0 0-.145.23c-.455.194-.951.18-1.489-.043-.151-.264-.344-.445-.579-.543-.358-.529-.372-1.155-.041-1.88.055-.139.117-.285.186-.438a1.14 1.14 0 0 1 .186-.313c.29-.209.51-.348.662-.418l.165-.083c.069-.042.131-.084.186-.126.097-.07.241-.139.434-.209a.72.72 0 0 1 .228-.041.61.61 0 0 0 .31-.084 2.1 2.1 0 0 0 .145-.042c.055-.013.103-.027.144-.041.111-.028.193-.042.249-.042Zm-6.203 18.504.207.084c.248-.112.551-.154.909-.126.373.028.662-.027.869-.167a3.82 3.82 0 0 0 .289-.25c.083-.084.179-.112.29-.084a8.768 8.768 0 0 0 1.116-.501c.317-.167.648-.293.993-.376.22-.084.413-.209.578-.376.566-.181 1.041-.439 1.427-.773.4-.334.834-.689 1.303-1.065.386-.223.709-.418.971-.585a8.62 8.62 0 0 0 .848-.626c.069-.153.145-.258.227-.314.069-.041.145-.132.228-.271.496 0 .772.195.827.585a2.063 2.063 0 0 1-.558.752 4.147 4.147 0 0 0-.641.668c-.221.14-.4.265-.538.376a1.958 1.958 0 0 0-.413.501c-.014 0-.097.063-.248.188-.138.125-.221.188-.249.188-.22.265-.386.425-.496.48-.11.056-.303.202-.579.439a2.146 2.146 0 0 1-.744.752c-.593.57-1.22 1.051-1.881 1.441-.345.195-.669.397-.972.606-.303.195-.593.39-.868.584-.138.084-.235.16-.29.23-.055.07-.152.16-.289.272-.138.111-.352.223-.641.334l-.765.292a4.001 4.001 0 0 1-.455.25c-.62.029-1.089-.069-1.406-.292a41.348 41.348 0 0 1-.827-.459c-.193-.111-.358-.292-.496-.543-.317-.153-.503-.41-.558-.773a6.73 6.73 0 0 0-.104-.564l-.124-.543c-.027-.139-.055-.299-.083-.48a1.972 1.972 0 0 1 0-.564c.069-.32.111-.647.124-.982.014-.306.083-.605.207-.898.124-.278.2-.584.228-.919.027-.334.103-.64.227-.919.179-.278.255-.431.228-.459-.014-.014-.007-.056.02-.125l.186-.25c.042-.057.104-.154.186-.293l.248-.627a3.56 3.56 0 0 1 .373-.585c.124-.167.234-.403.33-.71.069-.195.145-.348.228-.46.055-.069.103-.139.145-.208l.165-.25c.069-.14.138-.314.207-.523.027-.097.055-.188.082-.271l.124-.293c.083-.223.187-.445.311-.668.124-.223.255-.446.392-.668.111-.223.207-.39.29-.502.083-.111.248-.18.496-.209a.679.679 0 0 1 .372.021c.152.042.29.035.414-.02.358-.168.606-.251.744-.251s.234-.042.289-.125c.29.014.51.111.662.292.152.167.317.334.496.501-.165.808-.351 1.427-.558 1.859-.207.432-.434.884-.682 1.357a9.13 9.13 0 0 0-.414.752l-.372.752a6.293 6.293 0 0 1-.434.815 3.4 3.4 0 0 0-.393.814l-.186.397c-.083.167-.145.3-.186.397a2.622 2.622 0 0 1-.103.292.754.754 0 0 1-.124.23c-.056.07-.104.146-.145.23l-.124.209-.248.5a3.127 3.127 0 0 0-.207.544 5.623 5.623 0 0 0-.248.606.815.815 0 0 0-.042.104l-.041.084a2.397 2.397 0 0 1-.248.751c-.11.195-.069.335.124.418Z"/><path d="M150.894 21.177c.137.014.227.07.268.167.042.084.117.126.228.126.055.264 0 .452-.166.564-.165.097-.22.257-.165.48a2.02 2.02 0 0 1-.91.313c-.372.042-.648.188-.827.439a4.471 4.471 0 0 1-1.509.438c-.262.028-.538.07-.827.126-.276.041-.558.09-.848.146-.303.209-.489.32-.558.334a.807.807 0 0 0-.31.125 2.4 2.4 0 0 0-.868-.167 3.57 3.57 0 0 1-.91-.125 1.37 1.37 0 0 1-.476.083c-.165 0-.324.028-.475.084-.11.25-.166.501-.166.752 0 .264-.041.515-.124.752l-.248.5-.062.398c-.027.167-.062.3-.103.397-.055.083-.117.18-.186.292a.7.7 0 0 0-.104.376c-.192.25-.33.508-.413.773a1.38 1.38 0 0 1-.455.73c-.083.293-.214.516-.393.669a4.36 4.36 0 0 0-.517.585c-.303.418-.572.78-.806 1.086-.234.306-.544.57-.93.793-.138.223-.304.376-.496.46a2.16 2.16 0 0 0-.331.418l-.827.5a3.104 3.104 0 0 1-.951.419 2.52 2.52 0 0 1-1.365-.042 5.07 5.07 0 0 1-1.24-.585c-.262.028-.462-.02-.6-.146a1.617 1.617 0 0 0-.558-.272 6.626 6.626 0 0 0-.993-.752 1.931 1.931 0 0 1-.785-.918l-.186-.92a17.898 17.898 0 0 0-.186-.835 2.169 2.169 0 0 1-.021-.793c.041-.251.048-.53.021-.836v-.418c0-.139-.007-.257-.021-.355-.014-.209.048-.466.186-.772.083-.181.152-.348.207-.502.055-.153.096-.285.124-.396a7.73 7.73 0 0 1 .083-.314c.027-.111.055-.209.082-.292l.124-.209.124-.25c.042-.084.083-.16.124-.23a3.65 3.65 0 0 1 .166-.23 6.77 6.77 0 0 1 .579-.752c.22-.25.441-.487.661-.71.152-.209.304-.39.455-.543.248-.25.483-.46.703-.627.221-.167.469-.39.744-.668a.751.751 0 0 1 .207-.209l.248-.167c.276-.167.531-.306.765-.418.235-.111.503-.236.807-.375.261-.126.475-.202.64-.23a2.81 2.81 0 0 1 .331-.063c.124-.028.255-.056.393-.084h.496a1 1 0 0 0 .414-.083c-.083-.223.014-.376.289-.46.276-.083.483-.11.62-.083.276 0 .497.063.662.188.165.125.317.271.455.438.276.195.579.488.91.878.069.07.137.111.206.125a.415.415 0 0 1 .207.125c.11.167.186.32.228.46.041.167.13.32.268.46a1.6 1.6 0 0 1 .248.208.64.64 0 0 1 .166.334c.289.112.551.195.785.25.125.057.269.07.435.043.151-.028.324-.028.517 0 .124.014.248.048.372.104.11.042.234.063.372.063a2.31 2.31 0 0 0 .682-.167c.234-.084.503-.098.806-.042.414.097.848.056 1.303-.125.455-.195.917-.32 1.385-.376.138 0 .234-.007.29-.021a1.35 1.35 0 0 1 .289-.021c.138-.111.317-.195.538-.25.22-.056.454-.112.703-.168Zm-11.827 1.253c-.275-.25-.434-.41-.475-.48-.055-.084-.103-.132-.145-.146a.66.66 0 0 0-.413-.21l-.248-.04-.207-.043c-.441-.083-.806-.034-1.096.147a4.571 4.571 0 0 1-.434.271l-.414.25a4.588 4.588 0 0 0-1.157 1.045c-.083.14-.173.292-.269.46a2.39 2.39 0 0 0-.228.542c-.11.223-.206.425-.289.606a3.213 3.213 0 0 0-.207.648c-.138.264-.22.494-.248.689-.014.097-.027.188-.041.271l-.042.21c-.013.138-.034.285-.062.438-.027.139-.055.285-.082.438a4.46 4.46 0 0 0-.104.794c.028.084.069.195.124.334.056.14.111.237.166.293.055.139.117.292.186.459.069.167.131.292.186.376.152.195.331.32.537.376.111.028.228.063.352.104a5.6 5.6 0 0 1 .393.105c.303.167.51.236.62.209.138-.028.221-.042.248-.042.372-.07.689-.223.951-.46.234-.223.51-.417.827-.585.11-.167.221-.34.331-.522.124-.18.255-.362.393-.543.138-.195.262-.383.372-.564.124-.194.241-.39.351-.584.069-.084.138-.21.207-.376a2.5 2.5 0 0 1 .083-.188 2.14 2.14 0 0 1 .083-.188c.193-.237.282-.362.268-.376-.013-.014-.007-.056.021-.125.179-.418.262-.738.248-.961a5.322 5.322 0 0 1 0-.669 4.895 4.895 0 0 1-.186-.48c-.055-.167-.11-.341-.165-.522a3.418 3.418 0 0 0-.435-.96Z"/><path d="M149.405 28.111c.221-.14.4-.32.538-.543.068-.111.144-.223.227-.334.083-.112.172-.223.269-.334a5.773 5.773 0 0 1 1.158-1.044 1.79 1.79 0 0 1 .723-.648 1.63 1.63 0 0 0 .682-.69c.042-.055.09-.138.145-.25.055-.111.104-.195.145-.25.524-.738 1.089-1.351 1.695-1.838l.248-.21c.083-.069.159-.138.228-.208.11-.111.296-.25.558-.418.124-.07.248-.146.372-.23.124-.097.241-.201.352-.313.22-.223.475-.39.765-.501.179-.084.358-.146.537-.188a1.65 1.65 0 0 1 .248-.063l.29-.083c.193-.056.365-.105.517-.146a.943.943 0 0 1 .516.02c.441.181.772.558.993 1.128.083.21.034.648-.145 1.316a30.862 30.862 0 0 1-.599 2.089c-.235.71-.4 1.26-.497 1.65-.055.208-.069.327-.041.355a.14.14 0 0 1 .041.104 3.08 3.08 0 0 0-.124.376 8.305 8.305 0 0 0-.082.376 5.442 5.442 0 0 0-.124.898c-.028.376-.014.675.041.898.276-.014.434-.042.475-.084a.14.14 0 0 1 .104-.041.63.63 0 0 1 .269-.021.623.623 0 0 0 .268-.021c.565-.153 1.075-.46 1.53-.919.248-.111.483-.223.703-.334.235-.112.455-.223.662-.334.386-.279.696-.48.93-.606.234-.125.586-.3 1.055-.522.179-.209.42-.383.723-.522.276-.126.545-.3.807-.522a2.92 2.92 0 0 0 .206-.23c.083-.111.166-.132.248-.063.138.14.228.286.269.439.042.153.048.257.021.313-.207.209-.324.376-.352.501-.027.126-.062.21-.103.25-.138.14-.345.265-.62.377-.235.097-.379.188-.434.271a1.36 1.36 0 0 1-.145.188 1.24 1.24 0 0 1-.228.188 1.238 1.238 0 0 0-.227.188.316.316 0 0 1-.227.146l-.269.063a6.35 6.35 0 0 0-.414.376l-.372.376a3.142 3.142 0 0 0-.413.48c-.055.098-.207.23-.455.397l-.827.501a8.66 8.66 0 0 0-1.158.71l-1.158.836c-.248.153-.53.3-.847.438-.29.126-.559.272-.807.44a.69.69 0 0 1-.227-.022c-.042-.028-.117-.007-.228.063a.479.479 0 0 0-.413-.021c-.152.07-.29.077-.414.02a8.15 8.15 0 0 0-.351-.27 1.17 1.17 0 0 0-.207-.147 1.062 1.062 0 0 1-.227-.209 1.006 1.006 0 0 1-.062-.46.598.598 0 0 0-.104-.417c0-.613.021-1.197.062-1.754.042-.557.131-1.142.269-1.755.028-.195.097-.529.207-1.002.11-.487.2-.954.269-1.4.069-.445.048-.703-.062-.772-.304.167-.614.418-.931.752-.151.167-.303.32-.455.46-.151.139-.296.264-.434.375l-.641.46c-.096.07-.2.146-.31.23-.11.069-.22.146-.331.23-.193.138-.358.278-.496.417-.138.139-.289.306-.455.501l-.289.292a4.428 4.428 0 0 0-.248.272 4.363 4.363 0 0 1-.579.522 1.95 1.95 0 0 1-.31.272 1.55 1.55 0 0 0-.269.23l-.393.396c-.124.125-.282.23-.475.313a15.746 15.746 0 0 1-1.489 1.734 8.155 8.155 0 0 0-1.282 1.692 6.823 6.823 0 0 1-1.054.73c-.372.21-.82.23-1.344.063-.276-.167-.455-.306-.538-.418a1.247 1.247 0 0 0-.289-.25c.027-.306.055-.599.083-.877.027-.279.11-.571.248-.877l.248-.418c.138-.237.227-.515.269-.836a2.41 2.41 0 0 1 .268-.877c.166-.278.269-.508.31-.689.042-.167.104-.327.187-.48.068-.167.144-.3.227-.397a1.49 1.49 0 0 0 .227-.397 2.63 2.63 0 0 1 .29-.48c.124-.167.22-.328.289-.48.166-.6.386-1.212.662-1.839.055-.194.11-.382.165-.563.055-.181.124-.355.207-.523l.207-.46c.069-.152.138-.298.207-.438.068-.153.137-.299.206-.438l.207-.46c.083-.167.159-.313.227-.438.069-.126.159-.258.269-.397l.124-.209c.042-.07.076-.14.104-.209.027-.07.062-.14.103-.209l.124-.209.124-.208a1.56 1.56 0 0 0 .103-.272c.056-.18.159-.355.311-.522a4.234 4.234 0 0 0 .454-.627c.097-.18.276-.306.538-.375.234.11.476.07.724-.126.262-.209.475-.195.641.042.385.25.647.445.785.585.166.153.276.306.331.46.138.25.152.507.041.772-.11.264-.303.494-.579.69-.096.43-.289.876-.578 1.336-.138.209-.269.418-.393.626-.124.195-.241.39-.352.585l-.331.836c-.165.39-.337.78-.516 1.17-.18.389-.379.765-.6 1.127-.179.376-.317.62-.413.73a4.719 4.719 0 0 0-.228.335 7.749 7.749 0 0 0-.31.731ZM190.052 24.686c.11 1.03.11 1.942 0 2.736a9.918 9.918 0 0 1-.662 2.402 8.78 8.78 0 0 1-1.364 1.67 4.428 4.428 0 0 0-.248.272 4.576 4.576 0 0 0-.207.272 2.832 2.832 0 0 1-.496.5c-.138.112-.345.23-.62.356a1.475 1.475 0 0 0-.538.438c-.11.028-.214.063-.31.105-.097.042-.2.09-.31.146-.276.07-.476.132-.6.188l-.393.188a.578.578 0 0 1-.372.042.83.83 0 0 0-.372 0 .632.632 0 0 0-.351.167 1.252 1.252 0 0 1-.352.209c-.276.083-.524.07-.744-.042a1.836 1.836 0 0 1-.579-.46c-.524-.194-.875-.431-1.055-.71-.179-.278-.365-.57-.558-.877-.275-.278-.448-.564-.517-.856a12.43 12.43 0 0 1-.186-.982 41.125 41.125 0 0 1-.331-2.59 3.896 3.896 0 0 1 0-.793 4.165 4.165 0 0 0 0-.836c-.027-.39-.048-.821-.062-1.295-.013-.473.021-.877.104-1.21.069-.293.138-.53.207-.71.068-.196.137-.419.206-.67.111-.347.193-.633.248-.855a4.575 4.575 0 0 1 .331-.961c.028-.07.055-.133.083-.188l.083-.167.082-.167c.042-.098.09-.23.145-.397.055-.167.103-.3.145-.397.055-.223.145-.446.269-.668.11-.21.199-.446.268-.71.055-.195.104-.362.145-.502.041-.139.145-.278.31-.417l.31-.836.166-.417c.055-.14.117-.279.186-.418.069-.14.131-.279.186-.418l.165-.418.166-.417c.055-.14.117-.279.186-.418.248-.348.393-.564.434-.647l.145-.356c.082-.11.151-.208.206-.292.056-.083.097-.153.124-.209l.993-1.691c.165-.279.338-.557.517-.836.179-.278.365-.55.558-.814.248-.348.496-.69.744-1.024.248-.348.49-.696.724-1.044.441-.64.999-1.302 1.675-1.984.096-.167.234-.348.413-.543.165-.195.331-.404.496-.627.097-.097.186-.195.269-.292a5.5 5.5 0 0 0 .269-.292c.151-.168.331-.335.537-.502.179-.153.331-.285.455-.397a3.95 3.95 0 0 0 .31-.271c.152-.153.379-.237.683-.25.551-.029 1.006.118 1.364.438.358.32.62.717.786 1.19-.055.488-.042.961.041 1.42.083.46.055.892-.083 1.295-.248.474-.489.961-.723 1.462a66.528 66.528 0 0 0-.682 1.504 9.811 9.811 0 0 1-.745 1.42c-.124.195-.248.397-.372.606-.11.209-.22.425-.331.647a7.155 7.155 0 0 1-.558.878c-.179.236-.351.557-.517.96-.138.14-.248.3-.331.48-.069.154-.206.314-.413.481a4.699 4.699 0 0 1-1.117 1.546l-.951 1.88c-.151.306-.317.605-.496.897-.165.293-.344.578-.537.857a.53.53 0 0 0-.331.209 4.17 4.17 0 0 0-.248.375c-.221.279-.441.55-.662.815-.22.264-.469.522-.744.773-.069.222-.228.445-.476.668-.262.25-.434.445-.517.585a1.75 1.75 0 0 0-.144.25 1.738 1.738 0 0 1-.145.251 1.14 1.14 0 0 1-.227.292c-.069.056-.145.14-.228.251-.083.223-.152.355-.207.397a1.234 1.234 0 0 0-.165.146c-.165.25-.262.376-.289.376-.028 0-.056.014-.083.042-.166.32-.276.487-.331.501-.055.014-.096.056-.124.125.014.39.014.655 0 .794l-.041.209-.042.209c.069.25.09.536.062.856a5.68 5.68 0 0 0-.02.48l.041.46c.028.306.062.591.103.856.042.265.104.508.186.731a1.4 1.4 0 0 0 .455.648c.221.18.483.257.786.23.11-.029.262-.084.455-.168.193-.083.344-.153.455-.209.069-.055.137-.118.206-.188.069-.07.138-.146.207-.23.069-.083.138-.16.207-.23.069-.083.138-.16.207-.229.303-.39.634-.863.992-1.42l.951-1.504c.069-.223.131-.41.186-.564.055-.153.104-.271.145-.355.069-.139.138-.334.207-.584.069-.32.089-.613.062-.878-.014-.25.034-.501.144-.752.055-.167.186-.383.393-.647.207-.265.379-.466.517-.606.248-.223.4-.327.455-.313.041.014.096.007.165-.02.455-.057.758-.043.91.04.152.084.372.126.662.126l.248-.042c.082-.027.172-.048.268-.062.166-.042.352-.049.559-.021.22.028.427.049.62.063.193.014.4-.007.62-.063.359-.084.8-.125 1.323-.125h.269c.097 0 .193.007.29.02.206.014.42-.007.641-.062a2.92 2.92 0 0 0 .744-.188c.248-.098.482-.119.703-.063.193.028.337.14.434.334.096.195.131.404.103.627a2.01 2.01 0 0 1-.206.522c-.111.209-.221.327-.331.355-.221-.056-.345-.07-.372-.042-.028.028-.069.042-.124.042a1.526 1.526 0 0 1-.517-.146l-.476-.188a3.117 3.117 0 0 0-1.137.042c-.372.083-.737.18-1.096.292l-.517.188a2.392 2.392 0 0 0-.289.105 6.364 6.364 0 0 1-.269.083c-.11.028-.2.042-.269.042a.413.413 0 0 0-.268.083c-.18.056-.352.098-.517.126a3.45 3.45 0 0 0-.476.125c-.22.056-.344.118-.372.188-.014.056-.138.118-.372.188Zm-2.192-14.16a72.25 72.25 0 0 0-3.597 6.182 5.59 5.59 0 0 0-.227.522c-.069.18-.145.383-.228.606a2.115 2.115 0 0 0-.351.689l-.269.814-.207.543c-.069.167-.138.341-.207.522-.137.349-.179.676-.124.982.317-.223.593-.536.827-.94l.662-1.19c.165-.167.289-.327.372-.48.097-.168.221-.342.372-.523.152-.167.276-.334.372-.501.097-.153.221-.306.373-.46a11.47 11.47 0 0 0 1.013-1.796l.454-.96c.166-.32.338-.64.517-.961.152-.292.324-.599.517-.919.152-.264.31-.57.476-.919l.434-1.044.207-.501c.069-.181.131-.362.186-.543.082-.432.186-.717.31-.857a.9.9 0 0 0 .227-.564 7.65 7.65 0 0 0-1.116 1.107l-.993 1.19Z"/><path d="M196.048 29.949c.262.056.51-.014.744-.209.248-.209.482-.376.703-.501.11-.14.241-.286.393-.439.151-.153.31-.285.475-.396.193-.251.393-.495.6-.732.22-.236.448-.466.682-.689.11-.139.221-.271.331-.396.11-.14.22-.272.331-.397l.331-.376.33-.418c.111-.153.221-.334.331-.543l.124-.25.166-.251c.151-.25.31-.474.475-.669.179-.222.31-.487.393-.793.11-.181.255-.32.434-.418a1.14 1.14 0 0 0 .434-.418c.069-.083.138-.208.207-.376a.76.76 0 0 1 .248-.334c.11-.083.172-.153.186-.209a.49.49 0 0 1 .104-.167 1.18 1.18 0 0 1 .31-.376c.138-.125.255-.25.351-.375.345-.279.593-.495.744-.648.152-.153.359-.313.621-.48a3.487 3.487 0 0 1 1.509-.167c.51.055.875.236 1.096.543.014.18.034.362.062.543.027.167.055.327.083.48.068.334.02.745-.145 1.232-.11.279-.248.557-.414.836-.151.25-.275.529-.372.835l-.165.25a2.463 2.463 0 0 1-.166.21 27.882 27.882 0 0 1-.868 2.192c-.152.349-.303.704-.455 1.066l-.455 1.086c.731-.362 1.255-.655 1.572-.878a7.58 7.58 0 0 1 .558-.355 8.7 8.7 0 0 1 .599-.355l.745-.5.372-.252.413-.25c.221-.279.469-.508.745-.69.275-.18.565-.368.868-.563.193-.195.386-.355.579-.48.193-.126.4-.258.62-.397l.207-.168c.069-.055.131-.11.186-.167.165-.139.296-.236.393-.292l.31-.334c.138-.14.255-.237.351-.293.248-.097.497-.222.745-.375.138-.084.241-.154.31-.21a1.23 1.23 0 0 1 .351-.208l.29-.397c.11-.167.262-.216.455-.146.069-.084.172-.126.31-.126.165 0 .282.028.351.084 0 .098.021.181.062.25.042.07.035.168-.02.293a2.828 2.828 0 0 0-.373.313c-.082.084-.22.16-.413.23-.345.376-.655.655-.93.836a1.874 1.874 0 0 0-.641.71 69.938 69.938 0 0 1-2.936 2.798.764.764 0 0 0-.455.167c-.152.112-.29.14-.414.084-.165-.07-.303.042-.413.334a14.19 14.19 0 0 1-2.398 2.047 9.607 9.607 0 0 1-1.861 1.524c-.717.46-1.337.954-1.861 1.483a5.273 5.273 0 0 1-.434 1.608 11.59 11.59 0 0 0-.558 1.525c-.111.237-.207.46-.29.668-.069.21-.131.404-.186.585-.11.376-.255.724-.434 1.044a5.063 5.063 0 0 1-.414 1.316c-.192.404-.399.8-.62 1.19a1.994 1.994 0 0 1-.413.878 4.03 4.03 0 0 0-.538.919 3.452 3.452 0 0 1-.207.396 3.625 3.625 0 0 0-.206.397c-.083.14-.152.279-.207.418-.055.14-.124.279-.207.418l-.165.188-.083.083a.63.63 0 0 1-.083.105l-.496.877c-.234.501-.517.898-.847 1.19-.18.153-.359.32-.538.502l-.558.563a3.575 3.575 0 0 0-.352.418c-.096.14-.213.279-.351.418a7.866 7.866 0 0 1-.414.397 2.369 2.369 0 0 0-.206.188l-.207.25a1.19 1.19 0 0 0-.538.397c-.138.181-.275.369-.413.564a1.597 1.597 0 0 0-.269.188 1.59 1.59 0 0 1-.269.188c-.193.07-.331.132-.413.188a.728.728 0 0 1-.166.104c-.179.098-.386.16-.62.188a1.09 1.09 0 0 0-.579.23c-.276 0-.475-.056-.599-.167a3.03 3.03 0 0 1-.352-.376 1.705 1.705 0 0 1-.186-1.128c.055-.39.145-.8.269-1.232.124-.432.165-.884.124-1.358.151-.445.234-.821.248-1.127a3.02 3.02 0 0 1 .165-.836c.207-.348.317-.57.331-.668.014-.125.097-.223.248-.292.028-.181.069-.32.124-.418a.855.855 0 0 0 .124-.376.738.738 0 0 0 .207-.209.986.986 0 0 1 .248-.209c.138-.278.262-.536.372-.773.111-.236.2-.452.269-.647s.145-.39.228-.585l.289-.585a3.05 3.05 0 0 0 .103-.334 2.43 2.43 0 0 0 .104-.292l.082-.293.125-.25c.124-.279.31-.585.558-.92l.682-.918c.096-.125.179-.237.248-.334.069-.084.117-.153.145-.21.083-.138.145-.236.186-.291.234-.168.338-.272.31-.314-.014-.041-.007-.062.021-.062.372-.376.73-.71 1.075-1.003.165-.195.331-.376.496-.543.165-.167.358-.32.579-.46.165-.194.331-.375.496-.542.165-.167.358-.32.579-.46.221-.153.427-.313.62-.48.207-.181.4-.362.579-.543.179-.195.365-.376.558-.543.193-.167.393-.328.6-.48a4.33 4.33 0 0 1 .289-1.045c.124-.264.221-.599.29-1.002a3.7 3.7 0 0 0 .289-.669 9.54 9.54 0 0 0 .207-.71.774.774 0 0 0 .186-.334 5.96 5.96 0 0 1 .145-.46c.138-.264.207-.5.207-.71a4.77 4.77 0 0 0 .041-.438c0-.14.028-.286.083-.439.027-.195.041-.39.041-.584a2.714 2.714 0 0 0-.517.584 7.071 7.071 0 0 1-.434.627l-.186.188a.604.604 0 0 0-.145.313c-.165.181-.262.279-.289.293-.055.013-.083.055-.083.125a78.367 78.367 0 0 0-1.881 2.234c-.304.39-.614.773-.931 1.15l-.951 1.085c-.248.223-.51.439-.785.648a79.79 79.79 0 0 1-.869.647c-.11.084-.234.181-.372.293a17.05 17.05 0 0 1-.413.313c-.318.236-.69.285-1.117.146-.634.25-1.151.202-1.551-.146a4.028 4.028 0 0 1-.93-1.149c-.11-.167-.2-.313-.269-.439-.069-.125-.089-.34-.062-.647.028-.153.062-.306.104-.46.027-.166.062-.327.103-.48.041-.153.083-.32.124-.501.028-.181.055-.369.083-.564l.082-.46c.028-.153.049-.306.062-.459.042-.292.104-.613.187-.96.082-.39.193-.766.33-1.128.138-.362.304-.669.497-.92.068-.208.137-.41.206-.605.069-.209.131-.404.186-.585.069-.195.131-.383.186-.564l.207-.584c.138-.446.303-.878.496-1.295.193-.418.4-.822.621-1.212.137-.195.268-.369.392-.522l.393-.48a2.35 2.35 0 0 0 .662-.146c.165-.07.331-.147.496-.23l.29-.084c.096-.027.193-.048.289-.062.096-.028.186-.05.269-.063.096-.028.186-.056.269-.083.303-.14.496-.202.578-.189.069.014.138-.02.207-.104.055.14.138.23.248.272.124.041.193.132.207.271 0 .195-.076.432-.227.71-.138.265-.242.474-.31.627a5.627 5.627 0 0 0-.166.313c-.055.111-.11.23-.165.355a3.08 3.08 0 0 1-.372.668 3.76 3.76 0 0 1-.104.376 1.524 1.524 0 0 1-.124.355c-.055.112-.103.23-.145.355l-.124.376a5.175 5.175 0 0 0-.723 1.045c-.207.39-.421.807-.641 1.253-.055.139-.117.264-.186.376a4.76 4.76 0 0 0-.186.376l-.083.376c-.014.125-.035.25-.062.375-.014.126-.035.251-.062.376l-.083.376c-.11.293-.193.613-.248.961a16.932 16.932 0 0 0-.165 2.38Zm5.913 3.592h-.042a8.088 8.088 0 0 0-1.447 1.19c-.207.224-.42.44-.641.648-.207.223-.42.446-.641.668a6.38 6.38 0 0 1-.289.314l-.29.334a7.299 7.299 0 0 0-.537.69c-.138.25-.283.507-.434.772a3.534 3.534 0 0 1-.559.73c-.344.321-.551.565-.62.732a2.099 2.099 0 0 1-.124.25c-.041.084-.083.16-.124.23l-.31.648-.165.292a2.43 2.43 0 0 1-.187.313 8.181 8.181 0 0 0-.372.836c-.124.32-.248.598-.372.835-.193.501-.344.982-.455 1.441-.11.46-.151.926-.124 1.4v.313c0 .083.042.16.124.23.124 0 .331-.056.621-.168.22-.194.434-.39.641-.584.206-.195.406-.404.599-.627.386-.445.8-.891 1.241-1.337.386-.445.73-.925 1.033-1.44a9.494 9.494 0 0 0 .786-1.734c.083-.153.159-.313.227-.48a4.35 4.35 0 0 0 .187-.502c.096-.334.234-.647.413-.94.152-.445.303-.884.455-1.315.165-.432.331-.85.496-1.253.358-.864.662-1.692.91-2.486Z"/></g><defs><filter id="a" width="218.225" height="51" x="0" y=".5" color-interpolation-filters="sRGB" filterUnits="userSpaceOnUse"><feFlood flood-opacity="0" result="BackgroundImageFix"/><feColorMatrix in="SourceAlpha" result="hardAlpha" values="0 0 0 0 0 0 0 0 0 0 0 0 0 0 0 0 0 0 127 0"/><feOffset/><feGaussianBlur stdDeviation=".5"/><feComposite in2="hardAlpha" operator="out"/><feColorMatrix values="0 0 0 0 0 0 0 0 0 0 0 0 0 0 0 0 0 0 0.5 0"/><feBlend in2="BackgroundImageFix" result="effect1_dropShadow_1_125"/><feBlend in="SourceGraphic" in2="effect1_dropShadow_1_125" result="shape"/></filter></defs></svg>