<svg width="29" height="146" viewBox="0 0 29 146" fill="none" xmlns="http://www.w3.org/2000/svg">
<path d="M22.8334 10.0001C22.8334 5.40008 19.1 1.66675 14.5 1.66675C9.90002 1.66675 6.16669 5.40008 6.16669 10.0001C6.16669 14.0334 9.03335 17.3917 12.8334 18.1667V12.5001H11.1667V10.0001H12.8334V7.91675C12.8334 6.30841 14.1417 5.00008 15.75 5.00008H17.8334V7.50008H16.1667C15.7084 7.50008 15.3334 7.87508 15.3334 8.33341V10.0001H17.8334V12.5001H15.3334V18.2917C19.5417 17.8751 22.8334 14.3251 22.8334 10.0001Z" fill="#121416"/>
<path d="M0.288 34.248L1.072 35.272L3.216 33.56V43H4.56V31.8H3.36L0.288 34.248ZM7.31638 43H14.1004V41.752H9.87638L12.8524 37.784C13.0924 37.448 14.0204 36.392 14.0204 34.888C14.0204 33.032 12.6764 31.608 10.6124 31.608C7.89238 31.608 7.25238 34.136 7.25238 34.136L8.40438 34.568C8.40438 34.568 8.83637 32.856 10.6124 32.856C12.0044 32.856 12.6764 33.816 12.6764 34.888C12.6764 36.12 11.6684 37.24 11.2524 37.784L7.31638 43ZM23.432 39.432C23.432 36.872 21.704 35.656 19.896 35.656C18.648 35.656 17.832 36.12 17.832 36.12V33.048H23.192V31.8H16.552V38.168C16.552 38.168 18.04 36.92 19.592 36.92C20.968 36.92 22.088 37.752 22.088 39.432C22.088 41.08 20.936 41.944 19.624 41.944C17.784 41.944 17.16 40.152 17.16 40.152L15.992 40.776C15.992 40.776 16.872 43.192 19.624 43.192C21.56 43.192 23.432 41.944 23.432 39.432Z" fill="#121416"/>
<path d="M23.2167 61.9999C22.575 62.2916 21.8833 62.4833 21.1667 62.5749C21.9 62.1333 22.4667 61.4333 22.7333 60.5916C22.0417 61.0083 21.275 61.2999 20.4667 61.4666C19.8083 60.7499 18.8833 60.3333 17.8333 60.3333C15.875 60.3333 14.275 61.9333 14.275 63.9083C14.275 64.1916 14.3083 64.4666 14.3667 64.7249C11.4 64.5749 8.75832 63.1499 6.99999 60.9916C6.69166 61.5166 6.51666 62.1333 6.51666 62.7833C6.51666 64.0249 7.14166 65.1249 8.10833 65.7499C7.51666 65.7499 6.96666 65.5833 6.48333 65.3333V65.3583C6.48333 67.0916 7.71666 68.5416 9.34999 68.8666C8.8256 69.0101 8.27507 69.0301 7.74166 68.9249C7.968 69.6353 8.41127 70.2569 9.00917 70.7024C9.60707 71.1478 10.3295 71.3947 11.075 71.4083C9.81135 72.4086 8.24499 72.9493 6.63333 72.9416C6.34999 72.9416 6.06666 72.9249 5.78333 72.8916C7.36666 73.9083 9.24999 74.4999 11.2667 74.4999C17.8333 74.4999 21.4417 69.0499 21.4417 64.3249C21.4417 64.1666 21.4417 64.0166 21.4333 63.8583C22.1333 63.3583 22.7333 62.7249 23.2167 61.9999Z" fill="#121416"/>
<path d="M12.0334 110.95C12.8334 111.192 13.6417 111.333 14.5 111.333C16.7102 111.333 18.8298 110.455 20.3926 108.893C21.9554 107.33 22.8334 105.21 22.8334 103C22.8334 101.906 22.6178 100.822 22.199 99.8111C21.7802 98.8 21.1664 97.8813 20.3926 97.1075C19.6188 96.3337 18.7001 95.7199 17.689 95.3011C16.678 94.8823 15.5944 94.6667 14.5 94.6667C13.4057 94.6667 12.322 94.8823 11.311 95.3011C10.2999 95.7199 9.38129 96.3337 8.60746 97.1075C7.04466 98.6703 6.16669 100.79 6.16669 103C6.16669 106.542 8.39169 109.583 11.5334 110.783C11.4584 110.133 11.3834 109.058 11.5334 108.317L12.4917 104.2C12.4917 104.2 12.25 103.717 12.25 102.95C12.25 101.8 12.9667 100.942 13.7834 100.942C14.5 100.942 14.8334 101.467 14.8334 102.142C14.8334 102.858 14.3584 103.883 14.1167 104.867C13.975 105.683 14.55 106.4 15.3834 106.4C16.8667 106.4 18.0167 104.817 18.0167 102.583C18.0167 100.583 16.5834 99.2167 14.525 99.2167C12.175 99.2167 10.7917 100.967 10.7917 102.808C10.7917 103.525 11.025 104.25 11.4084 104.725C11.4834 104.775 11.4834 104.842 11.4584 104.967L11.2167 105.875C11.2167 106.017 11.125 106.067 10.9834 105.967C9.91669 105.5 9.30002 103.983 9.30002 102.758C9.30002 100.125 11.1667 97.7334 14.7667 97.7334C17.6334 97.7334 19.8667 99.7917 19.8667 102.525C19.8667 105.392 18.0917 107.692 15.55 107.692C14.7417 107.692 13.95 107.258 13.6667 106.75L13.1084 108.725C12.9167 109.442 12.3917 110.4 12.0334 110.975V110.95Z" fill="#121416"/>
<path d="M0.032 133.056H5.744V136H7.056V133.056H8.448V131.808H7.056V124.8H5.872L0.032 133.056ZM2.272 131.808L5.744 126.848V131.808H2.272ZM9.81638 136H16.6004V134.752H12.3764L15.3524 130.784C15.5924 130.448 16.5204 129.392 16.5204 127.888C16.5204 126.032 15.1764 124.608 13.1124 124.608C10.3924 124.608 9.75238 127.136 9.75238 127.136L10.9044 127.568C10.9044 127.568 11.3364 125.856 13.1124 125.856C14.5044 125.856 15.1764 126.816 15.1764 127.888C15.1764 129.12 14.1684 130.24 13.7524 130.784L9.81638 136ZM25.932 132.432C25.932 129.872 24.204 128.656 22.396 128.656C21.148 128.656 20.332 129.12 20.332 129.12V126.048H25.692V124.8H19.052V131.168C19.052 131.168 20.54 129.92 22.092 129.92C23.468 129.92 24.588 130.752 24.588 132.432C24.588 134.08 23.436 134.944 22.124 134.944C20.284 134.944 19.66 133.152 19.66 133.152L18.492 133.776C18.492 133.776 19.372 136.192 22.124 136.192C24.06 136.192 25.932 134.944 25.932 132.432Z" fill="#121416"/>
</svg>
