<svg width="92" height="28" viewBox="0 0 92 28" fill="none" xmlns="http://www.w3.org/2000/svg">
<path d="M26.2033 7.00008C25.305 7.40841 24.3367 7.67675 23.3333 7.80508C24.36 7.18675 25.1533 6.20675 25.5267 5.02841C24.5583 5.61175 23.485 6.02008 22.3533 6.25341C21.4317 5.25008 20.1367 4.66675 18.6667 4.66675C15.925 4.66675 13.685 6.90675 13.685 9.67175C13.685 10.0684 13.7317 10.4534 13.8133 10.8151C9.65999 10.6051 5.96166 8.61008 3.49999 5.58841C3.06833 6.32341 2.82333 7.18675 2.82333 8.09675C2.82333 9.83508 3.69833 11.3751 5.05166 12.2501C4.22333 12.2501 3.45333 12.0167 2.77666 11.6667V11.7017C2.77666 14.1284 4.50333 16.1584 6.78999 16.6134C6.05584 16.8143 5.28511 16.8423 4.53833 16.6951C4.8552 17.6896 5.47579 18.5599 6.31285 19.1835C7.14991 19.8071 8.16135 20.1527 9.20499 20.1717C7.4359 21.5723 5.24299 22.3293 2.98666 22.3184C2.58999 22.3184 2.19333 22.2951 1.79666 22.2484C4.01333 23.6717 6.64999 24.5001 9.47333 24.5001C18.6667 24.5001 23.7183 16.8701 23.7183 10.2551C23.7183 10.0334 23.7183 9.82341 23.7067 9.60175C24.6867 8.90175 25.5267 8.01508 26.2033 7.00008Z" fill="#00ACED"/>
<path d="M36.4531 7.79688V9.65625H39.9219V19H42V9.65625H45.4688V7.79688H36.4531ZM57.4531 16.2188L55.2812 7.79688H53L50.8281 16.2188L48.4844 7.79688H46.2812L49.6094 19H51.875L54.1406 10.2031L56.4062 19H58.6719L62 7.79688H59.8125L57.4531 16.2188ZM63.3594 7.79688V19H70.9375V17.1406H65.4375V14.2656H70.3906V12.4375H65.4375V9.65625H70.8125V7.79688H63.3594ZM72.7656 7.79688V19H80.3438V17.1406H74.8438V14.2656H79.7969V12.4375H74.8438V9.65625H80.2188V7.79688H72.7656ZM81.5938 7.79688V9.65625H85.0625V19H87.1406V9.65625H90.6094V7.79688H81.5938Z" fill="#00ACED"/>
</svg>
