<svg width="20" height="16" viewBox="0 0 20 16" fill="none" xmlns="http://www.w3.org/2000/svg">
<path d="M17.9689 3.978C17.9819 4.153 17.9819 4.327 17.9819 4.501C17.9819 9.826 13.9289 15.962 6.52194 15.962C4.23994 15.962 2.11994 15.301 0.335938 14.153C0.659938 14.19 0.971937 14.203 1.30894 14.203C3.19194 14.203 4.92494 13.567 6.30994 12.482C4.53894 12.445 3.05494 11.285 2.54294 9.689C2.79194 9.726 3.04194 9.751 3.30394 9.751C3.66494 9.751 4.02794 9.701 4.36494 9.614C2.51794 9.24 1.13494 7.619 1.13494 5.661V5.611C1.67194 5.91 2.29494 6.097 2.95494 6.122C1.86994 5.4 1.15894 4.165 1.15894 2.768C1.15894 2.02 1.35794 1.334 1.70694 0.736C3.68994 3.179 6.67094 4.776 10.0129 4.951C9.95094 4.651 9.91294 4.34 9.91294 4.028C9.91294 1.808 11.7089 0 13.9409 0C15.1009 0 16.1479 0.486 16.8839 1.272C17.7939 1.097 18.6659 0.76 19.4399 0.299C19.1409 1.234 18.5039 2.02 17.6689 2.519C18.4799 2.431 19.2659 2.207 19.9879 1.895C19.4399 2.693 18.7549 3.404 17.9689 3.978Z" fill="black"/>
</svg>
