<svg width="24" height="24" viewBox="0 0 24 24" fill="none" xmlns="http://www.w3.org/2000/svg">
<rect width="24" height="24" rx="12" fill="black"/>
<path d="M12.864 12.3207C12.864 14.3755 11.1703 16.044 9.07212 16.044C6.97397 16.044 5.28027 14.3755 5.28027 12.3207C5.28027 10.2659 6.97397 8.59741 9.07212 8.59741C11.1703 8.59741 12.864 10.2659 12.864 12.3207ZM17.0182 12.3207C17.0182 14.2522 16.1671 15.8221 15.1222 15.8221C14.0774 15.8221 13.2263 14.2522 13.2263 12.3207C13.2263 10.3892 14.0774 8.81933 15.1222 8.81933C16.1671 8.81933 17.0182 10.381 17.0182 12.3207ZM18.7203 12.3207C18.7203 14.055 18.4254 15.4605 18.0546 15.4605C17.6838 15.4605 17.3889 14.055 17.3889 12.3207C17.3889 10.5865 17.6838 9.18097 18.0546 9.18097C18.4254 9.18097 18.7203 10.5865 18.7203 12.3207Z" fill="white"/>
</svg>
